<svg width="36" height="80" viewBox="0 0 36 80" fill="none" xmlns="http://www.w3.org/2000/svg">
<path d="M15.8099 77.917C14.7137 77.0995 13.6216 76.2104 12.6269 75.2428L13.8446 73.9689C14.8049 74.8711 15.8139 75.734 16.8539 76.4975L15.815 77.9004L15.8099 77.917ZM9.78904 72.222C8.91361 71.1644 8.09207 70.0509 7.32442 68.8816L8.79095 67.9224C9.50758 69.0211 10.301 70.1076 11.1254 71.0945L9.77241 72.2168L9.78904 72.222ZM5.26227 65.3035C4.63681 64.0878 4.08702 62.8048 3.59227 61.5209L5.24225 60.9106C5.71407 62.1509 6.25125 63.3571 6.83716 64.524L5.26227 65.3035ZM2.31556 57.5889C1.96299 56.2586 1.67577 54.8943 1.45506 53.5509L3.20021 53.2799C3.39799 54.5797 3.67259 55.8672 4.02401 57.1425L2.31556 57.5889ZM1.03372 49.4506C0.966657 48.0826 0.964952 46.6806 1.04122 45.3212L2.79955 45.4184C2.72214 46.7228 2.72786 48.0533 2.79378 49.3663L1.03372 49.4506ZM1.50048 41.2062C1.72523 39.8389 2.03827 38.4811 2.42412 37.1825L4.11365 37.6767C3.74328 38.9255 3.45088 40.217 3.23015 41.5128L1.50048 41.2062ZM5.44606 33.9816L3.84024 33.277C4.34476 32.125 4.91063 31.0104 5.51605 29.9446L5.71786 29.5893L7.22852 30.4824L7.03187 30.8211C6.44708 31.8205 5.91332 32.8906 5.45122 33.965L5.44606 33.9816ZM9.4289 27.2237L8.01972 26.1804C8.80173 25.1337 9.66571 24.0581 10.6128 23.0086L11.9309 24.1688C11.0273 25.1956 10.1954 26.2267 9.44037 27.2455L9.4289 27.2237ZM14.6615 21.2587L13.4244 20.0146C14.3789 19.0585 15.3616 18.1294 16.3775 17.2107L17.5608 18.5106C16.5718 19.4013 15.611 20.3191 14.6782 21.2639L14.6615 21.2587ZM20.5443 15.8437L19.388 14.5158C20.2204 13.7762 21.0643 13.0583 21.9134 12.3239L22.438 11.8697L23.5943 13.1976L23.0698 13.6517C22.2258 14.3696 21.3934 15.1092 20.5495 15.8271L20.5443 15.8437ZM26.6444 10.5515L25.4829 9.24025C26.4884 8.35474 27.4774 7.46401 28.4383 6.54626L29.6485 7.81821C28.6659 8.74732 27.6551 9.64942 26.6444 10.5515ZM32.5506 4.94367L31.2699 3.72238C32.2181 2.72786 33.1114 1.73426 33.906 0.764296L35.2561 1.87996C34.4346 2.87786 33.5144 3.89941 32.534 4.93845L32.5506 4.94367Z" fill="#91CFC8"/>
<path d="M16.3655 67.8621L14.6255 68.1165L15.905 76.6727L7.24637 77.2844L7.37649 79.0362L17.9156 78.3052L16.3655 67.8621Z" fill="#91CFC8"/>
</svg>
