<svg width="127" height="74" viewBox="0 0 127 74" fill="none" xmlns="http://www.w3.org/2000/svg">
<path d="M1.00004 29.9157L2.6798 30.5729C3.18016 29.3118 3.69839 28.033 4.23448 26.7897L2.57259 26.0792C2.01863 27.358 1.48253 28.6369 0.982178 29.9335L1.00004 29.9157ZM4.35957 22.2782L5.96784 23.0775C6.59328 21.8164 7.25447 20.6264 7.89778 19.5074L6.34312 18.6016C5.66407 19.7561 4.98501 20.9994 4.3417 22.296L4.35957 22.2782ZM8.63045 15.0493L10.1136 16.0794C10.9178 14.9605 11.7398 13.877 12.5976 12.8824L11.2216 11.7101C10.3281 12.7403 9.45246 13.8592 8.63045 15.0315V15.0493ZM14.188 8.67287L15.4031 10.005C16.4038 9.09915 17.4581 8.26436 18.5482 7.50061L17.5117 6.0264C16.3502 6.82567 15.2244 7.71375 14.1701 8.67287H14.188ZM21.1929 3.84173L22.0149 5.44027C23.2301 4.83638 24.481 4.32129 25.714 3.91277L25.16 2.20766C23.8198 2.63394 22.4974 3.18455 21.2108 3.84173H21.1929ZM29.3237 1.21302L29.5917 2.98917C30.6103 2.82932 31.6468 2.75827 32.6475 2.75827C32.9513 2.75827 33.255 2.75827 33.541 2.77603L33.6303 0.982117C33.3087 0.982117 32.9691 0.964355 32.6475 0.964355C31.5574 0.964355 30.4316 1.05316 29.3237 1.21302ZM37.4544 3.36217C38.7232 3.69964 39.9741 4.16144 41.1535 4.74757L41.9576 3.14903C40.671 2.50961 39.295 1.99453 37.9191 1.63929L37.4544 3.37993V3.36217ZM44.513 6.84343C45.5316 7.62494 46.5323 8.51302 47.4794 9.52543L48.8018 8.29988C47.8011 7.23419 46.7289 6.27506 45.6209 5.42251L44.5309 6.84343H44.513ZM50.0169 12.6159C50.7674 13.6639 51.5001 14.8184 52.1792 16.0262L53.7517 15.1558C53.0369 13.8948 52.2685 12.687 51.4822 11.5858L50.0169 12.6337V12.6159ZM54.0019 19.6318C54.538 20.8218 55.0562 22.0828 55.5208 23.3972L57.2185 22.7933C56.736 21.4434 56.1999 20.1468 55.6459 18.9035L54.0019 19.6318ZM56.7896 27.2692C57.0219 28.0507 57.2185 28.8145 57.415 29.596C57.558 30.1466 57.6831 30.6794 57.8082 31.2301L59.5594 30.8215C59.4343 30.2709 59.2913 29.7203 59.1484 29.1697C58.9518 28.3704 58.7374 27.5889 58.5051 26.7897L56.7717 27.287L56.7896 27.2692ZM58.7374 35.2264L59.6309 39.2583L61.4 38.8675L60.5065 34.8356L58.7374 35.2264ZM60.5958 43.2901C60.9354 44.64 61.2928 45.9899 61.6859 47.3043L63.4193 46.8069C63.044 45.5103 62.6866 44.1782 62.3471 42.8639L60.5958 43.2901ZM62.9725 51.2828C63.4729 52.6505 64.009 53.9648 64.5629 55.1726L66.207 54.4266C65.6709 53.2544 65.1526 51.9933 64.6702 50.679L62.9725 51.2828ZM66.5286 58.9026C67.2613 60.1281 68.0833 61.3181 68.941 62.4016L70.3706 61.3004C69.5665 60.2702 68.7981 59.1512 68.1012 57.9967L66.5465 58.9203L66.5286 58.9026ZM71.8181 65.5454C72.8367 66.5045 73.9625 67.4103 75.124 68.2451L76.1604 66.7887C75.0704 66.0249 74.0161 65.1724 73.0511 64.2488L71.8002 65.5454H71.8181ZM78.7694 70.4476C80.0203 71.087 81.3427 71.6731 82.6829 72.1349L83.2905 70.4476C82.0217 70.0035 80.7887 69.4529 79.5914 68.849L78.7694 70.4476ZM86.793 73.3072C88.1868 73.6091 89.6164 73.8045 91.0281 73.9111L91.1711 72.1172C89.8487 72.0106 88.5085 71.833 87.1861 71.5488L86.8109 73.3072H86.793ZM95.1739 72.1527L95.299 73.9466C96.7286 73.8578 98.1582 73.6624 99.5341 73.3605L99.1589 71.6021C97.8723 71.8685 96.532 72.0639 95.1739 72.1527ZM103.001 70.4831L103.644 72.1527C104.967 71.6554 106.271 71.0515 107.522 70.3588L106.646 68.7957C105.467 69.4529 104.234 70.0213 103.001 70.4831ZM110.006 66.6111L111.096 68.0498C112.222 67.1972 113.312 66.2736 114.33 65.279L113.062 64.0001C112.114 64.9415 111.078 65.8118 110.024 66.6111H110.006ZM115.724 60.9984L117.154 62.0996C118.029 60.9807 118.816 59.7906 119.53 58.5828L117.976 57.6948C117.315 58.8493 116.564 59.9683 115.742 61.0162L115.724 60.9984ZM119.727 54.0892L121.407 54.7641C121.943 53.4498 122.39 52.0821 122.711 50.7145L120.96 50.2882C120.656 51.567 120.227 52.8459 119.727 54.0892Z" fill="#91CFC8"/>
<path d="M127 58.3164L125.374 59.1157L121.478 51.1585L113.794 55.5989L112.883 54.0359L122.265 48.6364L127 58.3164Z" fill="#91CFC8"/>
</svg>
