<svg width="126" height="27" viewBox="0 0 126 27" fill="none" xmlns="http://www.w3.org/2000/svg">
<path d="M122.42 24.8748C121.971 23.5858 121.452 22.2794 120.829 21.0426L119.256 21.8264C119.826 23.011 120.345 24.2303 120.76 25.4497L122.403 24.8748H122.42ZM118.806 17.4368C118.062 16.2871 117.25 15.1723 116.368 14.0923L115.019 15.2071C115.849 16.2174 116.644 17.2974 117.336 18.3774L118.806 17.4194V17.4368ZM113.583 11.0613C112.615 10.1032 111.56 9.19742 110.488 8.34387L109.416 9.73742C110.453 10.5561 111.439 11.4271 112.373 12.3329L113.583 11.0613ZM107.133 5.95742C105.974 5.22581 104.764 4.54645 103.553 3.93677L102.775 5.52193C103.951 6.09677 105.092 6.74129 106.199 7.45548L107.133 5.95742ZM99.7832 2.31677C98.5035 1.84645 97.1719 1.42839 95.8576 1.09742L95.4253 2.80452C96.6877 3.11806 97.9501 3.51871 99.178 3.97161L99.7832 2.31677ZM91.811 0.313549C90.4448 0.121936 89.0613 0.0174194 87.7124 0L87.6778 1.75935C88.9748 1.77677 90.2891 1.88129 91.5861 2.05548L91.811 0.313549ZM83.7695 1.93355L83.5793 0.191613C82.3342 0.330967 81.1063 0.54 79.9131 0.80129L79.5153 0.888386L79.9131 2.59548L80.2935 2.50839C81.4176 2.2471 82.5936 2.05548 83.7522 1.93355H83.7695ZM76.1604 3.72774L75.5897 2.0729C74.3619 2.50839 73.0822 3.01355 71.8024 3.6058L72.5115 5.20838C73.7566 4.65097 74.9844 4.16322 76.1777 3.74516L76.1604 3.72774ZM68.9317 6.95032L68.1189 5.4C66.9257 6.02709 65.7497 6.68903 64.5738 7.3858L65.4557 8.90129C66.5971 8.22193 67.7558 7.57742 68.9317 6.96774V6.95032ZM62.0316 10.9568L61.1151 9.45871C60.164 10.0335 59.2301 10.6258 58.279 11.2181L57.691 11.5839L58.6075 13.0819L59.1955 12.7161C60.1294 12.1239 61.0805 11.549 62.0144 10.9568H62.0316ZM55.1834 15.2071L54.2842 13.709C53.1428 14.4058 52.0015 15.0852 50.8428 15.7297L51.6902 17.2626C52.8661 16.6006 54.0248 15.9039 55.1834 15.2071ZM48.0931 19.1787L47.3149 17.5935C46.0871 18.2032 44.8766 18.7606 43.7179 19.231L44.375 20.851C45.5683 20.3632 46.8134 19.7884 48.0931 19.1613V19.1787ZM40.5359 22.2619L40.0171 20.5723C39.2735 20.7987 38.5126 21.0077 37.7344 21.1993C37.2329 21.3213 36.7141 21.4258 36.2125 21.5303L36.5238 23.2548C37.0599 23.1503 37.596 23.0458 38.1321 22.9064C38.9449 22.7148 39.7404 22.4884 40.5186 22.2445L40.5359 22.2619ZM32.4599 23.7774L32.3388 22.0181C31.5952 22.0703 30.8516 22.0877 30.108 22.0877C29.5373 22.0877 28.9839 22.0877 28.4132 22.0529L28.3267 23.8123C28.9147 23.8471 29.5027 23.8645 30.108 23.8645C30.8862 23.8645 31.6644 23.8471 32.4426 23.7948L32.4599 23.7774ZM24.5395 21.6523C23.2598 21.4432 21.9627 21.1645 20.7003 20.8161L20.2334 22.5058C21.5477 22.8716 22.9139 23.1677 24.2455 23.3768L24.5222 21.6348L24.5395 21.6523ZM16.9822 19.5793C15.7717 19.109 14.5612 18.5516 13.4025 17.9593L12.607 19.5271C13.8175 20.1542 15.08 20.729 16.3597 21.2168L16.9995 19.5793H16.9822ZM10.013 15.9735C8.9235 15.2419 7.8513 14.4581 6.84828 13.6393L5.7415 14.9981C6.7964 15.869 7.90318 16.6877 9.04455 17.4542L9.99569 15.991L10.013 15.9735ZM3.97757 10.9568C3.06102 10.0161 2.21364 9.0058 1.41814 7.97806L0.034668 9.04064C0.864753 10.1381 1.76401 11.1832 2.71515 12.1761L3.97757 10.9568Z" fill="#91CFC8"/>
<path d="M112.701 22.4187L113.462 20.8335L121.21 24.5961L124.374 16.5135L126 17.1581L122.161 27L112.701 22.4187Z" fill="#91CFC8"/>
</svg>
