<svg width="97" height="63" viewBox="0 0 97 63" fill="none" xmlns="http://www.w3.org/2000/svg">
<path d="M94.8941 0.779389L93.3745 1.27081C93.7291 2.44151 94.0491 3.60569 94.2876 4.7472L95.8495 4.40804C95.6053 3.22215 95.289 2.001 94.9065 0.788963L94.8941 0.779389ZM96.3915 8.13876L94.8036 8.27825C94.903 9.47278 94.9237 10.6669 94.8753 11.8479L96.4671 11.9111C96.5289 10.6605 96.5091 9.38725 96.4011 8.12615L96.3915 8.13876ZM96.0266 15.6867L94.4625 15.4051C94.2347 16.5882 93.9253 17.7487 93.5507 18.8391L95.0458 19.3673C95.4655 18.1916 95.7883 16.9616 96.017 15.6993L96.0266 15.6867ZM93.5103 22.8419L92.1187 22.0736C91.6844 22.8786 91.1782 23.6484 90.6412 24.3546C90.4782 24.569 90.3152 24.7834 90.1493 24.9756L91.3616 26.0057C91.5342 25.7787 91.7289 25.5486 91.9015 25.3216C92.4864 24.5523 93.0281 23.71 93.5103 22.8419ZM87.6375 27.4215C86.7196 28.135 85.724 28.7689 84.6793 29.2853L85.3708 30.7145C86.5105 30.1512 87.6107 29.4578 88.5986 28.6782L87.6251 27.412L87.6375 27.4215ZM81.4042 30.5264C80.3086 30.824 79.1477 31.0515 77.9283 31.1742L78.0797 32.7681C79.3653 32.6363 80.6145 32.3966 81.8079 32.0743L81.3946 30.5391L81.4042 30.5264ZM74.3955 31.299C73.2565 31.2638 72.0523 31.1586 70.8395 30.9867L70.607 32.5657C71.8765 32.741 73.1374 32.8498 74.3329 32.8885L74.383 31.2895L74.3955 31.299ZM67.3284 30.3295C66.2047 30.0663 65.0407 29.7523 63.868 29.3716L63.3813 30.8953C64.5885 31.2824 65.7871 31.603 66.9578 31.8823L67.3284 30.3295ZM60.467 28.1798C59.7933 27.9225 59.1513 27.6495 58.4967 27.367C58.0332 27.171 57.5918 26.9721 57.1378 26.7636L56.4851 28.2197C56.939 28.4282 57.4026 28.6241 57.8661 28.82C58.5331 29.1122 59.1972 29.3821 59.8833 29.649L60.4641 28.1576L60.467 28.1798ZM53.8317 25.2651L50.5197 23.7223L49.8449 25.1814L53.1569 26.7243L53.8317 25.2651ZM47.1694 22.2299C46.0389 21.7418 44.8988 21.2664 43.7645 20.8353L43.1838 22.3267C44.296 22.7608 45.4236 23.2267 46.5292 23.6956L47.1694 22.2299ZM40.279 19.5987C39.0497 19.2145 37.8387 18.8844 36.693 18.6243L36.3348 20.1866C37.4461 20.4402 38.6101 20.7543 39.7923 21.1223L40.279 19.5987ZM33.0178 18.0009C31.7637 17.8573 30.4866 17.7959 29.2652 17.8172L29.2717 19.4198C30.4269 19.4076 31.6253 19.4685 32.8103 19.599L32.9957 18.0039L33.0178 18.0009ZM25.5127 18.153C24.2923 18.3548 23.0519 18.661 21.8421 19.0308L22.3092 20.5473C23.4306 20.1897 24.5953 19.9053 25.762 19.7221L25.5223 18.1404L25.5127 18.153ZM18.3387 20.4163C17.2183 20.9544 16.0969 21.5717 15.0533 22.2686L15.9127 23.6069C16.9055 22.9509 17.9539 22.3775 19.0206 21.8581L18.3387 20.4163ZM12.0243 24.5373C11.0643 25.3582 10.1599 26.2618 9.32748 27.2006L10.511 28.2686C11.2955 27.3928 12.1394 26.5426 13.0487 25.7626L12.0147 24.5499L12.0243 24.5373ZM8.33815 31.0744L7.01076 30.1956C6.30603 31.2524 5.67617 32.3666 5.14995 33.5005L6.58663 34.1835C7.08987 33.1319 7.67178 32.0807 8.33815 31.0744ZM5.31111 37.4981L3.79298 37.0521C3.43277 38.2535 3.15703 39.4996 2.97244 40.7558L4.54036 40.9804C4.71155 39.7938 4.97389 38.6173 5.31111 37.4981ZM4.27241 44.529L2.67677 44.5228C2.6716 45.7769 2.73553 47.0441 2.88773 48.2991L4.46695 48.093C4.31384 46.9172 4.25858 45.7166 4.26282 44.5417L4.27241 44.529ZM5.14696 51.5902L3.60621 52.0055C3.92246 53.2267 4.33657 54.423 4.80151 55.5786L6.25964 54.9601C5.80337 53.8711 5.42 52.7383 5.12489 51.5932L5.14696 51.5902ZM7.85294 58.1396L6.47742 58.9613C7.11312 60.0481 7.83419 61.1006 8.62239 62.0649L9.86158 61.0588C9.12618 60.155 8.45791 59.163 7.85294 58.1396Z" fill="#91CFC8"/>
<path d="M0.980483 60.9937L1.29157 59.4153L8.97208 60.9553L9.97586 53.1388L11.563 53.3382L10.322 62.8698L0.980483 60.9937Z" fill="#91CFC8"/>
</svg>
