<svg width="32" height="27" viewBox="0 0 32 27" fill="none" xmlns="http://www.w3.org/2000/svg">
<path d="M32.0001 4.53353C31.8252 5.56032 31.1728 6.30693 30.5091 7.06237C25.0887 13.2343 19.674 19.4119 14.2684 25.596C13.4918 26.4847 12.5697 27.0234 11.3526 26.9993C10.5417 26.9832 9.81254 26.7271 9.21173 26.1957C7.59567 24.7643 5.99432 23.316 4.38806 21.8742C3.34257 20.9357 2.29544 19.9988 1.25567 19.0547C-0.326882 17.6169 -0.420886 15.6203 1.01207 14.0396C1.21316 13.818 1.41507 13.598 1.62024 13.3797C2.94448 11.9715 4.97825 11.8286 6.4766 13.0617C7.65779 14.0339 8.81527 15.0334 9.98339 16.0209C10.2433 16.2409 10.5041 16.46 10.7894 16.7017C10.8703 16.6166 10.9463 16.5395 11.0199 16.4592C15.6792 11.3863 20.3533 6.32619 24.9898 1.23319C26.3304 -0.23916 28.5889 -0.456721 30.1061 0.936952C30.3644 1.17458 30.6432 1.39054 30.9031 1.62576C31.4565 2.12751 31.7933 2.74889 31.938 3.47302C31.9519 3.54126 31.978 3.60789 31.9985 3.67452V4.53353H32.0001Z" fill="#91CFC8"/>
</svg>
