<svg width="299" height="113" viewBox="0 0 299 113" fill="none" xmlns="http://www.w3.org/2000/svg">
<path d="M0 96.5137V0H92.4858V9.95205H84.2344V32.9745H107.382L116.029 54.5699L142 63.2182V96.5137H125.474C125.36 98.7766 124.802 100.998 123.834 103.048H142V113H0V103.048H26.4178C25.4498 101.002 24.8913 98.7786 24.7777 96.5137H0ZM56.8858 86.5617H74.2704V9.95205H9.96594V86.5597H27.3505C30.5072 81.4623 36.1212 78.3146 42.1191 78.3146C48.1171 78.3146 53.7311 81.4604 56.8878 86.5597L56.8858 86.5617ZM92.4348 103.048C91.4668 101 90.9064 98.7766 90.7947 96.5137H59.4567C59.343 98.7786 58.7846 101 57.8166 103.048H92.4368H92.4348ZM93.3636 86.5617C96.5203 81.4643 102.134 78.3166 108.132 78.3166C114.13 78.3166 119.744 81.4623 122.901 86.5617H132.032V70.3925L111.45 63.5392H84.2304V86.5617H93.3636ZM100.737 95.6602C100.737 99.7358 104.055 103.05 108.134 103.05C112.214 103.05 115.529 99.7358 115.529 95.6602C115.529 91.5847 112.212 88.2726 108.134 88.2726C104.057 88.2726 100.737 91.5866 100.737 95.6602ZM42.1152 88.2726C38.0356 88.2726 34.7182 91.5866 34.7182 95.6602C34.7182 99.7339 38.0356 103.05 42.1152 103.05C46.1949 103.05 49.5123 99.7358 49.5123 95.6602C49.5123 91.5847 46.1949 88.2726 42.1152 88.2726ZM84.2324 42.9285V53.5852H104.901L100.635 42.9285H84.2324Z" fill="#91CFC8"/>
<path d="M31.0382 35.0044L41.9016 15.163L52.765 35.0044L72.6283 45.8569L52.765 56.7075L41.9016 76.5509L31.0382 56.7075L11.173 45.8569L31.0382 35.0044ZM37.3439 50.4101L41.9016 58.7355L46.4594 50.4101L54.7911 45.8589L46.4594 41.3057L41.9016 32.9823L37.3439 41.3057L29.0121 45.8589L37.3439 50.4101Z" fill="#91CFC8"/>
<path d="M294.161 78.5826C294.113 78.5191 289.045 72.1998 281.655 70.4261L281.608 70.4142L281.642 70.3785C282.278 69.6622 282.652 69.1365 282.794 68.9341C286.578 64.4461 288.234 58.9047 287.452 53.3295C286.634 47.5063 283.273 42.3457 277.988 38.7923L277.953 38.7685L277.99 38.7427C284.033 34.6992 287.643 28.2669 287.643 21.5369C287.643 9.66037 276.824 0 263.525 0H207.48C194.194 0.00198406 183.388 9.66236 183.388 21.5389C183.388 28.2708 186.997 34.7012 193.04 38.7447L193.076 38.7705L193.04 38.7943C187.747 42.3517 184.381 47.5221 183.565 53.3513C182.781 58.9205 184.438 64.462 188.247 68.9797C188.35 69.1047 188.788 69.6345 189.504 70.3686L189.542 70.4082L189.488 70.4201C181.549 72.0967 177.269 77.9655 176.85 78.5746C173.061 83.0586 171.408 88.5981 172.19 94.1733C173.009 99.9985 176.366 105.157 181.653 108.708C188.165 112.952 196.037 113 196.116 113L274.934 112.994C275.394 112.94 286.21 111.645 289.324 108.708C294.617 105.153 297.983 99.9826 298.801 94.1515C299.583 88.5822 297.926 83.0387 294.163 78.5806L294.161 78.5826ZM200.957 87.1953V95.7486H274.884C277.567 95.7486 279.749 97.6989 279.749 100.098V103.699L279.725 103.705C278.148 104.197 276.518 104.449 274.884 104.449H196.116C188.115 104.449 181.605 98.6334 181.605 91.4829C181.605 84.3323 188.115 78.5191 196.116 78.5191H274.886C279.992 78.5191 284.628 80.8563 287.292 84.7708C289.563 88.106 290.026 92.1237 288.564 95.7923L288.536 95.8617L288.508 95.7903C286.481 90.6476 281.007 87.1934 274.886 87.1934H200.957V87.1953ZM268.39 12.9043C268.39 15.303 266.207 17.2534 263.525 17.2534H212.347V25.8066H263.527C269.647 25.8066 275.121 22.3524 277.151 17.2117L277.179 17.1423L277.206 17.2137C278.669 20.8941 278.203 24.9198 275.927 28.2589C273.261 32.1695 268.625 34.5047 263.527 34.5047H207.48C199.479 34.5047 192.968 28.6895 192.968 21.5409C192.968 14.3924 199.479 8.57708 207.48 8.57708H263.525C265.166 8.57708 266.81 8.82509 268.414 9.31912L268.438 9.32705L268.388 12.9043H268.39ZM263.525 68.9837H207.48C202.374 68.9837 197.736 66.6484 195.074 62.7339C192.803 59.3967 192.34 55.379 193.802 51.7105L193.83 51.643L193.858 51.7125C195.887 56.8532 201.361 60.3074 207.48 60.3074H258.684V51.7541H207.48C204.798 51.7541 202.615 49.8038 202.615 47.4071V43.806L202.639 43.8C204.219 43.308 205.848 43.056 207.482 43.056H263.527C271.528 43.056 278.038 48.8713 278.038 56.0199C278.038 63.1684 271.528 68.9837 263.527 68.9837H263.525Z" fill="#91CFC8"/>
</svg>
