<svg width="143" height="113" viewBox="0 0 143 113" fill="none" xmlns="http://www.w3.org/2000/svg">
<path d="M142.328 96.5121V63.2171L116.297 54.5689L107.63 32.9739H84.4291V9.95188H92.6995V0H0V96.5121H24.835C24.9489 98.7769 25.5086 100.999 26.4789 103.046H0V113H142.328V103.046H124.122C125.092 100.997 125.652 98.7749 125.766 96.5121H142.33H142.328ZM84.4291 86.5602V63.5382H111.711L132.341 70.3913V86.5602H123.189C120.025 81.4629 114.398 78.3152 108.386 78.3152C102.374 78.3152 96.7474 81.4609 93.5834 86.5602H84.4291ZM9.98702 46.51L22.761 33.524L17.9472 28.7262L9.98898 36.8184V9.95188H74.4421V52.1495L55.998 70.8044L60.8118 75.6022L74.444 61.8156V86.5602H57.0193C53.8553 81.4629 48.2284 78.3152 42.2165 78.3152C36.2047 78.3152 30.5778 81.4609 27.4137 86.5602H9.98702V46.51ZM91.0046 96.5121C91.1185 98.7749 91.6783 100.999 92.6485 103.046H57.9483C58.9185 100.999 59.4802 98.7769 59.5922 96.5121H91.0046ZM84.4291 53.5843V42.9277H100.87L105.146 53.5843H84.4291ZM42.2145 88.2691C46.3036 88.2691 49.6287 91.5831 49.6287 95.6566C49.6287 99.7302 46.3036 103.046 42.2145 103.046C38.1255 103.046 34.8004 99.7321 34.8004 95.6566C34.8004 91.5811 38.1255 88.2691 42.2145 88.2691ZM108.386 88.2691C112.473 88.2691 115.798 91.5831 115.798 95.6566C115.798 99.7302 112.473 103.046 108.386 103.046C104.299 103.046 100.972 99.7321 100.972 95.6566C100.972 91.5811 104.297 88.2691 108.386 88.2691Z" fill="#91CFC8"/>
<path d="M42.0535 73.1925L57.1391 58.7717C58.8163 57.1665 59.7394 55.027 59.7414 52.7407C59.7414 50.4543 58.8183 48.3109 57.1391 46.7077C56.8975 46.4747 56.762 46.1791 56.7639 45.8718C56.7639 45.5665 56.8975 45.2709 57.1391 45.0379L58.5767 43.6638C61.0219 41.3265 62.3692 38.2083 62.3692 34.8844C62.3692 31.5606 61.0219 28.4423 58.5767 26.1031C53.6294 21.3778 45.5867 21.3778 40.6433 26.1031L26.2746 39.8388C24.5973 41.442 23.6722 43.5835 23.6722 45.8718C23.6722 48.1601 24.5953 50.2997 26.2746 51.9048L27.7122 53.279C27.9538 53.5099 28.0873 53.8055 28.0873 54.1109C28.0873 54.4163 27.9538 54.7158 27.7103 54.9467L25.5557 57.008C23.301 59.1612 22.0598 62.0368 22.0598 65.1022C22.0598 68.1657 23.301 71.0412 25.5557 73.1945C27.8301 75.3712 30.8173 76.4576 33.8046 76.4556C36.7919 76.4556 39.7791 75.3692 42.0535 73.1945V73.1925ZM30.56 62.2051L32.7146 60.1439C34.3918 58.5387 35.3149 56.3972 35.3149 54.1109C35.3149 51.8245 34.3918 49.6831 32.7146 48.0799L31.2769 46.7077C31.0353 46.4747 30.8998 46.1791 30.9018 45.8718C30.9018 45.5665 31.0353 45.2709 31.2789 45.0379L45.6456 31.3022C46.7376 30.2589 48.1733 29.7362 49.609 29.7362C51.0447 29.7362 52.4804 30.2589 53.5724 31.3042C54.5819 32.2673 55.1397 33.5396 55.1397 34.8825C55.1397 36.2273 54.5839 37.4996 53.5724 38.4647L52.1347 39.8388C50.4575 41.442 49.5324 43.5835 49.5324 45.8718C49.5324 48.1601 50.4555 50.2997 52.1347 51.9028C52.3763 52.1358 52.5118 52.4314 52.5099 52.7387C52.5099 53.0441 52.3763 53.3396 52.1347 53.5726L37.0491 67.9934C35.2599 69.7062 32.3473 69.7062 30.56 67.9934C29.741 67.2124 29.2913 66.1847 29.2913 65.1002C29.2913 64.0158 29.741 62.9881 30.56 62.2051Z" fill="#91CFC8"/>
<path d="M32.2314 24.085L27.4176 19.2871L22.103 24.9267L26.9148 29.7245L32.2314 24.085Z" fill="#91CFC8"/>
<path d="M40.4077 15.7891L35.5939 10.9913L30.2793 16.6308L35.0931 21.4286L40.4077 15.7891Z" fill="#91CFC8"/>
</svg>
