<svg width="143" height="113" viewBox="0 0 143 113" fill="none" xmlns="http://www.w3.org/2000/svg">
<path d="M0.603516 96.5137V0H93.0893V9.95205H84.8379V32.9745H107.985L116.632 54.5699L142.604 63.2182V96.5137H126.077C125.964 98.7766 125.405 100.998 124.437 103.048H142.604V113H0.603516V103.048H27.0213C26.0533 101.002 25.4949 98.7786 25.3812 96.5137H0.603516ZM57.4893 86.5617H74.8739V9.95205H10.5695V86.5597H27.954C31.1107 81.4623 36.7247 78.3146 42.7227 78.3146C48.7206 78.3146 54.3346 81.4604 57.4913 86.5597L57.4893 86.5617ZM93.0383 103.048C92.0703 101 91.5099 98.7766 91.3982 96.5137H60.0602C59.9465 98.7786 59.3881 101 58.4201 103.048H93.0403H93.0383ZM93.9671 86.5617C97.1239 81.4643 102.738 78.3166 108.736 78.3166C114.734 78.3166 120.348 81.4623 123.504 86.5617H132.636V70.3925L112.053 63.5392H84.834V86.5617H93.9671ZM101.341 95.6602C101.341 99.7358 104.658 103.05 108.738 103.05C112.817 103.05 116.133 99.7358 116.133 95.6602C116.133 91.5847 112.815 88.2726 108.738 88.2726C104.66 88.2726 101.341 91.5866 101.341 95.6602ZM42.7187 88.2726C38.6391 88.2726 35.3217 91.5866 35.3217 95.6602C35.3217 99.7339 38.6391 103.05 42.7187 103.05C46.7984 103.05 50.1158 99.7358 50.1158 95.6602C50.1158 91.5847 46.7984 88.2726 42.7187 88.2726ZM84.8359 42.9285V53.5852H105.505L101.239 42.9285H84.8359Z" fill="#91CEC8"/>
<path d="M31.6418 35.0044L42.5051 15.163L53.3685 35.0044L73.2318 45.8569L53.3685 56.7075L42.5051 76.5509L31.6418 56.7075L11.7765 45.8569L31.6418 35.0044ZM37.9474 50.4101L42.5051 58.7355L47.0629 50.4101L55.3946 45.8589L47.0629 41.3057L42.5051 32.9823L37.9474 41.3057L29.6157 45.8589L37.9474 50.4101Z" fill="#91CEC8"/>
</svg>
