<svg width="46" height="45" viewBox="0 0 46 45" fill="none" xmlns="http://www.w3.org/2000/svg">
<path d="M18.6599 36.8354C20.1516 36.8354 21.3608 35.6524 21.3608 34.1932C21.3608 32.734 20.1516 31.5511 18.6599 31.5511C17.1682 31.5511 15.959 32.734 15.959 34.1932C15.959 35.6524 17.1682 36.8354 18.6599 36.8354Z" fill="#91CEC8"/>
<path d="M25.9182 37.4183C26.847 37.4183 27.6 36.6817 27.6 35.7731C27.6 34.8645 26.847 34.1279 25.9182 34.1279C24.9894 34.1279 24.2364 34.8645 24.2364 35.7731C24.2364 36.6817 24.9894 37.4183 25.9182 37.4183Z" fill="#91CEC8"/>
<path d="M31.5728 32.8887C31.9019 32.8887 32.1687 32.6277 32.1687 32.3058C32.1687 31.9839 31.9019 31.7229 31.5728 31.7229C31.2437 31.7229 30.9769 31.9839 30.9769 32.3058C30.9769 32.6277 31.2437 32.8887 31.5728 32.8887Z" fill="#91CEC8"/>
<path d="M26.9353 31.7149C27.497 31.7149 27.9524 31.2694 27.9524 30.7199C27.9524 30.1704 27.497 29.725 26.9353 29.725C26.3736 29.725 25.9182 30.1704 25.9182 30.7199C25.9182 31.2694 26.3736 31.7149 26.9353 31.7149Z" fill="#91CEC8"/>
<path d="M0.0811614 23.1924C0.354439 25.8195 0.923596 28.4114 1.81226 30.9048C2.17184 31.9139 2.55504 32.8264 2.91975 33.4626C3.24748 34.0344 3.60192 34.5902 3.97896 35.1289C8.12127 41.0795 15.1001 45 23.0015 45C35.6853 45 46 34.9037 46 22.502C46 20.6166 45.7627 18.7875 45.3086 17.0408C43.6761 19.7282 41.7108 22.1955 39.4824 24.4065C38.5157 32.4616 31.4916 38.7368 23.0015 38.7368C19.4674 38.7368 16.183 37.6534 13.4872 35.7932C11.6492 34.5339 10.0804 32.9179 8.89693 31.0455L8.85892 30.9893C9.73628 31.0586 10.6198 31.0898 11.5095 31.0898C17.0829 31.0898 22.3523 29.7903 27.0165 27.4838C32.6115 24.717 37.2705 20.4287 40.5447 15.1997L42.96 11.3425V11.3384C41.719 9.21386 40.1297 7.30637 38.2732 5.69233L38.2671 5.6863C36.9993 4.58382 35.6103 3.61298 34.1114 2.80496H34.1052C30.8146 1.01505 27.0308 0 23.0036 0C12.1002 0 2.94441 7.46013 0.587649 17.4368C2.47594 18.4267 4.51832 19.1654 6.67064 19.6166C8.05963 12.0319 14.8536 6.26318 23.0036 6.26318C26.1925 6.26318 29.1688 7.14657 31.6981 8.68121C33.0871 9.51436 34.3426 10.5535 35.4182 11.7445L35.4244 11.7505C35.335 11.8882 34.9117 12.5274 34.7843 12.7093C34.6559 12.8912 33.7344 14.1374 33.5936 14.3062C33.0368 15.0017 31.5707 16.5675 31.4362 16.6991C30.7571 17.3634 30.0472 17.9956 29.3044 18.5966C29.1503 18.7222 28.9972 18.8468 28.8369 18.9594C28.4846 19.2287 28.126 19.492 27.7613 19.7483C27.5312 19.9051 27.3 20.0619 27.0637 20.2176C26.5963 20.5242 25.1426 21.3704 24.8929 21.502C24.5467 21.696 24.1881 21.8719 23.8306 22.0407C23.7793 22.0598 21.8653 22.899 21.3331 23.0929C21.0639 23.1864 19.6431 23.6568 19.2013 23.7753C16.7552 24.4648 14.1755 24.8276 11.5116 24.8276C9.8082 24.8276 8.13771 24.6768 6.51757 24.3894L6.48161 24.3844C4.2019 23.9834 2.05472 23.299 0 22.3915V22.4166L0.0811614 23.1924Z" fill="#91CEC8"/>
</svg>
