<svg width="53" height="45" viewBox="0 0 53 45" fill="none" xmlns="http://www.w3.org/2000/svg">
<path d="M0.357761 41.3508C1.83503 41.3508 3.03649 40.1819 3.03649 38.7447V18.7907L5.29617 16.5922L3.05449 14.4121C2.05928 13.4439 1.5142 12.1754 1.51911 10.8401C1.52402 9.52632 2.05355 8.29054 3.01112 7.35973C3.97359 6.42334 5.2528 5.90737 6.61385 5.90737H21.6091C22.2492 5.90737 22.7697 5.40096 22.7697 4.77829C22.7697 4.15562 22.2492 3.64921 21.6091 3.64921H10.6258V0H21.6091C24.3173 0 26.5205 2.14271 26.5205 4.77829C26.5205 7.41387 24.3173 9.55658 21.6091 9.55658H6.61385C6.25537 9.55658 5.91736 9.69274 5.66283 9.93957C5.12103 10.4667 5.13985 11.2805 5.70621 11.8323L7.94707 14.0132L10.2059 11.8147H23.1265C36.8631 11.8147 48.2614 22.1668 49.2222 35.4434H49.2893V41.3508H52.3257V45H0.000102997V41.3508H0.357761ZM45.4615 35.4434C44.4998 24.2099 34.7622 15.4632 23.1265 15.4632H11.7601L6.78654 20.3012V35.4426H45.4615V35.4434ZM45.5384 41.3508V39.0926H6.7759C6.73088 39.8753 6.53609 40.6421 6.20054 41.3508H45.5393H45.5384Z" fill="#91CFC8"/>
<path d="M24.2715 17.7213C32.5041 17.7213 39.6474 23.1477 41.6443 30.9191L42.2262 33.1861H9.10761V21.7448L13.2423 17.7221H24.2715V17.7213ZM20.4486 27.2779V29.5361H22.7697V27.2779H20.4486ZM26.5205 23.6287V29.5353H37.2044C34.9357 24.5579 29.917 21.3705 24.2715 21.3705H14.7957L12.8585 23.2552V29.5353H16.6977V23.6287H26.5205Z" fill="#91CFC8"/>
<path d="M50.3017 18.0693V18.4172H46.5508V18.0693C46.5508 16.269 47.4798 15.2513 48.0363 14.6406C48.4807 14.1565 48.574 14.0395 48.574 13.6389C48.574 13.2384 48.4602 13.1007 48.0338 12.6333C47.4789 12.0249 46.5508 11.0081 46.5508 9.20782V8.85986H50.3017V9.20782C50.3017 9.62187 50.4155 9.74688 50.8394 10.2111C51.3951 10.8186 52.3249 11.8338 52.3249 13.6389C52.3249 15.444 51.3951 16.4585 50.8394 17.0668C50.4155 17.531 50.3017 17.6552 50.3017 18.0693Z" fill="#91CFC8"/>
<path d="M41.7 12.1619V12.5099H37.9491V12.1619C37.9491 10.3608 38.878 9.34398 39.4346 8.73405C39.8585 8.26984 39.9731 8.14483 39.9731 7.73078C39.9731 7.31673 39.8593 7.19172 39.4338 6.72591C38.8789 6.11758 37.9491 5.10077 37.9491 3.30045V2.95249H41.7V3.30045C41.7 3.7145 41.8138 3.83872 42.2377 4.30293C42.7934 4.91126 43.724 5.92887 43.724 7.73078C43.724 9.53269 42.7934 10.5511 42.2377 11.1586C41.8138 11.6228 41.7 11.7479 41.7 12.1619Z" fill="#91CFC8"/>
</svg>
