<svg width="51" height="50" viewBox="0 0 51 50" fill="none" xmlns="http://www.w3.org/2000/svg">
<g clip-path="url(#clip0_114_584)">
<path d="M0.605736 7.81908C0.943207 6.1539 1.57551 4.69174 2.48632 3.47269C4.00767 1.43529 6.15225 0.316855 9.04163 0.0523853C12.0317 -0.22099 14.5092 0.566188 16.6166 2.46022C18.3085 3.98115 19.4588 5.87607 20.2707 7.35693C20.8051 8.3311 21.334 9.32665 21.8474 10.2919C22.3346 11.2091 22.8381 12.1575 23.3461 13.0844C24.5418 15.2697 26.0567 16.9259 27.9763 18.1459C29.0632 18.8369 29.9449 19.421 30.7496 19.9847C31.0916 20.2242 31.3647 20.5876 31.4608 20.9322C31.7049 21.8057 31.899 22.665 32.0387 23.4852C32.0904 23.7879 32.1367 24.0889 32.1802 24.3925C32.2546 24.064 32.3254 23.7345 32.3925 23.4059C32.5014 22.8672 32.8134 22.4691 33.2489 22.3124C33.6744 22.1592 34.1407 22.2554 34.5598 22.5831C36.7896 24.324 38.4008 26.2723 39.4858 28.5404C40.7032 31.0844 41.2838 33.9607 41.3128 37.5911C41.3156 37.974 41.1749 38.3231 40.9164 38.5742C40.6751 38.8084 40.3521 38.9366 40.0074 38.9277C39.3098 38.9135 38.8018 38.381 38.7446 37.6027C38.7165 37.2207 38.6929 36.8218 38.6729 36.4691C38.6194 35.5546 38.5641 34.6098 38.4253 33.7042C37.9544 30.625 36.6436 28.0096 34.5271 25.925C34.4074 26.3943 34.2894 26.8396 34.1026 27.2759C33.6181 28.405 33.0729 29.5234 32.544 30.608L32.3254 31.0559C32.0333 31.6561 31.4436 31.9286 30.8222 31.7496C30.1917 31.5689 29.8479 31.072 29.8778 30.3881L29.8814 30.3044C29.8842 30.2278 29.8869 30.1503 29.8932 30.0738C30.0701 27.795 29.8678 25.389 29.2564 22.5021C29.1566 22.031 28.9906 21.7897 28.6431 21.6134C28.2657 21.4219 27.9255 21.1851 27.5953 20.9562L27.5863 20.95C27.4484 20.8538 27.305 20.755 27.1653 20.6632C24.559 18.9607 22.8108 17.2278 21.6624 15.2082C20.825 13.7354 20.0095 12.2216 19.2166 10.7523L18.782 9.94642C17.8885 8.29103 16.9641 6.57865 15.7085 5.13698C13.5984 2.71401 10.846 1.9571 7.52754 2.88765C5.53899 3.44508 4.18548 4.88052 3.39079 7.27411C2.93901 8.63386 2.70496 10.1388 2.63057 12.1539C2.59065 13.2367 2.55799 14.4923 2.66776 15.6989C2.8628 17.8298 3.75457 19.7995 4.60097 21.4442C4.66175 21.5617 4.81325 21.6989 4.94025 21.7496C7.34248 22.7202 9.91071 23.3872 12.5751 23.7327C13.2891 23.8253 13.7182 24.1673 13.8488 24.7478C13.9876 25.3623 13.6928 25.8903 13.0414 26.1975C12.8591 26.283 12.6767 26.3703 12.4944 26.4576C11.8811 26.7505 11.2479 27.0533 10.5965 27.3133C10.0595 27.5279 9.52334 27.6953 8.95545 27.8734L8.91009 27.8876C8.8992 27.8912 8.88741 27.8948 8.87652 27.8983C9.08427 28.1397 9.2902 28.3836 9.49794 28.6285C10.0531 29.2839 10.6265 29.9607 11.2198 30.5929C15.0925 34.7238 18.9889 37.7665 23.132 39.893C26.3099 41.5243 29.045 42.1681 31.7384 41.9188C33.0883 41.7941 34.4146 41.6259 35.828 41.4469L35.8543 41.4433C36.092 41.413 36.3324 41.3828 36.5755 41.3525C26.4668 33.5938 17.5728 24.4317 10.1348 14.1147L10.0921 14.0559C10.0223 13.9616 9.94427 13.8538 9.87714 13.7291C9.55963 13.1352 9.73199 12.446 10.2881 12.0898C10.8487 11.7309 11.4602 11.8039 11.9237 12.2857C12.0861 12.4549 12.2131 12.6356 12.3347 12.8102C12.3728 12.8645 12.41 12.9179 12.4481 12.9714C22.4806 26.7817 35.0106 38.3195 49.6916 47.2643C49.7542 47.3026 49.8168 47.3391 49.8812 47.3774C50.0871 47.4985 50.3003 47.6241 50.5017 47.7844C51.0288 48.2029 51.1449 48.7977 50.8138 49.3756C50.5888 49.7674 50.1833 50.0007 49.7279 50.0007C49.5374 50.0007 49.3496 49.9598 49.1699 49.8796C48.9976 49.8022 48.8415 49.7042 48.7164 49.6258C48.2773 49.3507 47.8382 49.0746 47.3991 48.7986C46.4411 48.1966 45.4505 47.5733 44.4726 46.966L44.4462 46.95C44.3601 46.8965 44.1804 46.7852 44.1151 46.7799C43.9028 46.7844 43.6878 46.7835 43.4792 46.7826H43.4547C42.7825 46.7799 42.0876 46.7781 41.4798 46.9322C40.4229 47.2002 39.3678 47.608 38.3473 48.0025C38.1177 48.0916 37.8882 48.1797 37.6587 48.267C35.9641 48.9108 34.2432 48.9607 32.5449 48.4148C31.733 48.1539 31.3311 47.5163 31.5434 46.828C31.6504 46.4834 31.8636 46.2207 32.1612 46.0702C32.4896 45.9037 32.8878 45.8894 33.3142 46.0292C34.5407 46.4299 35.7391 46.3649 36.9783 45.8307L37.0046 45.8191C38.2112 45.2982 39.4531 44.7612 40.8148 44.4326C40.0627 43.9678 39.1873 43.7559 38.2076 43.7995C37.1752 43.8467 36.1192 43.9749 35.0986 44.0996L35.0705 44.1031C34.7113 44.1468 34.352 44.1904 33.9928 44.2314C32.1557 44.438 30.3523 44.6009 28.4907 44.3258C26.0885 43.9714 23.6799 43.1076 21.1271 41.6873C15.3193 38.4549 10.2754 33.966 5.70501 27.9633C5.29496 27.4255 5.33035 26.9794 5.43195 26.6998C5.58254 26.2857 5.97717 25.9811 6.54325 25.8431C7.05671 25.7176 7.56927 25.5858 8.12719 25.4389C6.62852 24.9411 5.08087 24.4264 3.55317 23.9037C3.40167 23.852 2.8873 23.6481 2.65416 23.2171C1.6617 21.3863 0.598476 19.1851 0.235603 16.7363C-0.173534 13.9811 -0.0519714 11.0649 0.604828 7.82175L0.605736 7.81908Z" fill="#91CEC8"/>
<path d="M46.9148 41.0793C46.8304 41.4025 46.61 41.6759 46.2934 41.8495C46.092 41.9599 45.8833 42.016 45.671 42.016C45.2401 42.016 44.8455 41.7845 44.5606 41.3651C44.0635 40.6322 43.8322 39.7792 43.8095 38.5984V38.5672L43.8122 38.5352C43.8222 38.4497 43.8313 38.3553 43.8412 38.2538C43.8666 37.9938 43.8957 37.6999 43.9447 37.3972C44.1551 36.0997 44.3928 34.6287 43.7034 33.2992C43.5636 33.0294 43.5437 32.7231 43.648 32.4363C43.765 32.114 44.0272 31.8451 44.3665 31.6981C45.0052 31.4221 45.6456 31.6314 45.9604 32.22C46.1999 32.6679 46.3941 33.1656 46.5365 33.6999C46.8721 34.9591 46.7161 36.2039 46.5111 37.4746C46.3623 38.3927 46.2226 39.26 46.7306 40.0606C46.9366 40.3838 47.001 40.7453 46.9139 41.0784L46.9148 41.0793Z" fill="#91CEC8"/>
</g>
<defs>
<clipPath id="clip0_114_584">
<rect width="51" height="50" fill="white" transform="matrix(-1 0 0 1 51 0)"/>
</clipPath>
</defs>
</svg>
