<svg width="56" height="45" viewBox="0 0 56 45" fill="none" xmlns="http://www.w3.org/2000/svg">
<path d="M55.9992 38.434V25.175L45.7573 21.731L42.3472 13.1312H33.2187V3.96314H36.4728V0H0V38.434H9.77135C9.81617 39.3359 10.0364 40.2207 10.4181 41.0361H0V45H55.9992V41.0361H48.8359C49.2176 40.2199 49.4379 39.3351 49.4827 38.434H56H55.9992ZM33.2187 34.4709V25.3028H43.9529L52.0698 28.0319V34.4709H48.4688C47.2239 32.441 45.01 31.1875 42.6447 31.1875C40.2793 31.1875 38.0654 32.4402 36.8205 34.4709H33.2187ZM3.9294 18.5217L8.95533 13.3503L7.06134 11.4396L3.93018 14.6622V3.96314H29.2893V20.7675L22.0325 28.1964L23.9265 30.1071L29.2901 24.6168V34.4709H22.4343C21.1894 32.441 18.9755 31.1875 16.6101 31.1875C14.2448 31.1875 12.0309 32.4402 10.786 34.4709H3.9294V18.5217ZM35.8059 38.434C35.8507 39.3351 36.0709 40.2207 36.4527 41.0361H22.7998C23.1816 40.2207 23.4026 39.3359 23.4466 38.434H35.8059ZM33.2187 21.3389V17.0951H39.6874L41.3696 21.3389H33.2187ZM16.6094 35.1514C18.2182 35.1514 19.5265 36.4711 19.5265 38.0934C19.5265 39.7156 18.2182 41.0361 16.6094 41.0361C15.0005 41.0361 13.6923 39.7163 13.6923 38.0934C13.6923 36.4704 15.0005 35.1514 16.6094 35.1514ZM42.6447 35.1514C44.2527 35.1514 45.561 36.4711 45.561 38.0934C45.561 39.7156 44.2527 41.0361 42.6447 41.0361C41.0366 41.0361 39.7276 39.7163 39.7276 38.0934C39.7276 36.4704 41.0358 35.1514 42.6447 35.1514Z" fill="#91CEC8"/>
<path d="M16.546 29.1475L22.4814 23.4047C23.1414 22.7654 23.5045 21.9134 23.5053 21.0029C23.5053 20.0924 23.1421 19.2388 22.4814 18.6004C22.3864 18.5076 22.3331 18.3899 22.3338 18.2675C22.3338 18.1459 22.3864 18.0282 22.4814 17.9355L23.0471 17.3882C24.0091 16.4575 24.5392 15.2157 24.5392 13.892C24.5392 12.5684 24.0091 11.3266 23.0471 10.3951C21.1005 8.51327 17.9362 8.51327 15.9912 10.3951L10.3378 15.865C9.67783 16.5035 9.31387 17.3563 9.31387 18.2675C9.31387 19.1788 9.67706 20.0308 10.3378 20.6701L10.9034 21.2173C10.9985 21.3093 11.051 21.427 11.051 21.5486C11.051 21.6702 10.9985 21.7895 10.9026 21.8815L10.0549 22.7023C9.16782 23.5598 8.67945 24.7049 8.67945 25.9257C8.67945 27.1456 9.16782 28.2908 10.0549 29.1482C10.9498 30.0151 12.1251 30.4477 13.3005 30.4469C14.4758 30.4469 15.6511 30.0143 16.546 29.1482V29.1475ZM12.0239 24.7719L12.8716 23.9511C13.5315 23.3119 13.8947 22.4591 13.8947 21.5486C13.8947 20.6381 13.5315 19.7853 12.8716 19.1469L12.3059 18.6004C12.2109 18.5076 12.1576 18.3899 12.1583 18.2675C12.1583 18.1459 12.2109 18.0282 12.3067 17.9355L17.9593 12.4655C18.389 12.05 18.9539 11.8419 19.5187 11.8419C20.0836 11.8419 20.6485 12.05 21.0781 12.4663C21.4753 12.8498 21.6948 13.3565 21.6948 13.8913C21.6948 14.4268 21.4761 14.9335 21.0781 15.3178L20.5125 15.865C19.8526 16.5035 19.4886 17.3563 19.4886 18.2675C19.4886 19.1788 19.8518 20.0308 20.5125 20.6693C20.6075 20.762 20.6608 20.8798 20.6601 21.0021C20.6601 21.1237 20.6075 21.2415 20.5125 21.3342L14.577 27.077C13.8731 27.7591 12.7271 27.7591 12.0239 27.077C11.7017 26.766 11.5247 26.3567 11.5247 25.9249C11.5247 25.493 11.7017 25.0838 12.0239 24.7719Z" fill="#91CEC8"/>
<path d="M12.6815 9.59134L10.7875 7.6807L8.69647 9.92653L10.5897 11.8372L12.6815 9.59134Z" fill="#91CEC8"/>
<path d="M15.8984 6.28769L14.0044 4.37706L11.9134 6.62289L13.8074 8.53352L15.8984 6.28769Z" fill="#91CEC8"/>
</svg>
