<svg width="119" height="113" viewBox="0 0 119 113" fill="none" xmlns="http://www.w3.org/2000/svg">
<path d="M118.998 8.87612V0.0053697C118.703 0.0447475 118.408 0.112764 118.119 0.218368C108.371 3.74268 97.6136 6.36131 86.121 8.00622C85.6102 6.24138 83.9753 4.9455 82.0383 4.9455H72.0313C69.6896 4.9455 67.785 6.841 67.785 9.17145V9.72453C62.3462 9.95722 56.6952 9.95722 51.2564 9.72453V9.17145C51.2564 6.841 49.35 4.9455 47.0083 4.9455H37.0012C35.066 4.9455 33.4276 6.23959 32.9186 8.00622C21.4277 6.3631 10.6707 3.74447 0.915454 0.216578C0.6133 0.109184 0.307549 0.0375879 0 0V8.86359C10.0916 12.3485 21.0914 14.9224 32.7549 16.5279V25.5401L20.4907 30.1169C19.926 30.3299 19.4044 30.6646 18.9871 31.0834L1.473 48.5135C-0.0125899 49.9937 -0.179853 52.3671 1.07912 54.0371C13.1958 70.1176 15.5807 73.2821 16.0969 73.9497L16.0897 73.9551C17.4566 75.779 20.0033 76.1979 21.8864 74.9109L27.7208 70.9355C27.0679 80.8946 25.273 108.309 25.2586 108.497C25.1849 109.631 24.8845 113 24.8845 113H93.9788C93.9788 113 93.8583 109.66 93.7846 108.498L91.3242 70.9355C96.3295 74.3471 97.0471 74.8357 97.1532 74.9091C97.8906 75.4121 98.7287 75.6555 99.5578 75.6555C100.851 75.6555 102.121 75.0666 102.953 73.9569L117.966 54.0371C119.225 52.3653 119.056 49.9937 117.572 48.5135L100.06 31.087C99.637 30.6646 99.1154 30.3281 98.5471 30.1151L86.2883 25.5401V16.5279C97.9356 14.9242 108.923 12.3539 119 8.87791H118.998V8.87612ZM76.2776 13.3974H77.792V29.8448H76.2776V13.3974ZM51.2564 18.1854C54.1916 18.3143 56.9092 18.3769 59.5189 18.3769C62.1286 18.3769 64.8461 18.3161 67.7831 18.1854V28.0388C62.4793 30.5805 56.5585 30.5805 51.2546 28.0388V18.1854H51.2564ZM47.0083 38.2967C48.2816 38.2967 49.4381 37.7275 50.2133 36.8004C53.2564 37.9101 56.3786 38.4721 59.5189 38.4721C62.6591 38.4721 65.7832 37.9101 68.8245 36.8004C69.6015 37.7275 70.7561 38.2967 72.0295 38.2967H72.0762C70.2903 43.6038 65.2976 47.2749 59.5189 47.2749C53.7402 47.2749 48.7493 43.6056 46.9615 38.2967H47.0083ZM41.2476 13.3974H42.7619V29.8448H41.2476V13.3974ZM94.6982 37.706L108.955 51.8964L98.592 65.6482L90.6155 60.214L90.1533 53.1815H81.6426L85.0077 104.545H34.0283L37.3933 53.1815H28.8809L28.4186 60.214L20.4421 65.6482L10.079 51.8964L24.3378 37.706L32.7783 34.5576C33.0211 36.6607 34.8214 38.2967 36.9976 38.2967H38.1901C40.19 48.3363 49.1 55.7268 59.5171 55.7268C69.9342 55.7268 78.8441 48.3345 80.8459 38.2967H82.0365C84.2146 38.2967 86.0131 36.6607 86.2559 34.5576L94.7 37.706H94.6982Z" fill="#ffffff"/>
</svg>
