<svg width="24" height="21" viewBox="0 0 24 21" fill="none" xmlns="http://www.w3.org/2000/svg">
<path d="M23.836 19.297C23.1584 19.297 22.6073 18.7516 22.6073 18.0808V8.76898L21.5709 7.74304L22.5991 6.72565C23.0555 6.2738 23.3055 5.68187 23.3033 5.05873C23.301 4.44562 23.0582 3.86892 22.6189 3.43454C22.1775 2.99756 21.5908 2.75677 20.9665 2.75677H14.0887C13.7951 2.75677 13.5564 2.52045 13.5564 2.22987C13.5564 1.93929 13.7951 1.70296 14.0887 1.70296H19.1263V0H14.0887C12.8465 0 11.836 0.999929 11.836 2.22987C11.836 3.45981 12.8465 4.45974 14.0887 4.45974H20.9665C21.1309 4.45974 21.286 4.52328 21.4027 4.63847C21.6512 4.88446 21.6426 5.26421 21.3828 5.52172L20.355 6.53948L19.3189 5.51354H13.3927C7.09219 5.51354 1.86417 10.3445 1.42347 16.5403H1.39269V19.297H0V21H24V19.297H23.836ZM3.14837 16.5403C3.58945 11.298 8.05581 7.21614 13.3927 7.21614H18.6061L20.8873 9.47387V16.5399H3.14837V16.5403ZM3.11309 19.297V18.2432H20.8922C20.9128 18.6085 21.0022 18.9663 21.1561 19.297H3.11271H3.11309Z" fill="#FAFFFE"/>
<path d="M12.8675 8.26995C9.0915 8.26995 5.81512 10.8023 4.89918 14.4289L4.63228 15.4868H19.8227V10.1476L17.9262 8.27032H12.8675V8.26995ZM14.621 12.7297V13.7835H13.5564V12.7297H14.621ZM11.836 11.0267V13.7831H6.93565C7.97622 11.4604 10.2781 9.97291 12.8675 9.97291H17.2138L18.1023 10.8524V13.7831H16.3414V11.0267H11.836Z" fill="#FAFFFE"/>
<path d="M0.928332 8.43233V8.59471H2.64873V8.43233C2.64873 7.59218 2.22267 7.1173 1.9674 6.83229C1.76357 6.60637 1.72077 6.55175 1.72077 6.36484C1.72077 6.17793 1.77295 6.11365 1.96853 5.89553C2.22304 5.61164 2.64873 5.13713 2.64873 4.29698V4.1346H0.928332V4.29698C0.928332 4.49021 0.876154 4.54854 0.681703 4.76518C0.426815 5.04869 0.000375387 5.52246 0.000375387 6.36484C0.000375387 7.20722 0.426815 7.68061 0.681703 7.9645C0.876154 8.18114 0.928332 8.2391 0.928332 8.43233Z" fill="#FAFFFE"/>
<path d="M4.87365 5.67555V5.83794H6.59405V5.67555C6.59405 4.83503 6.16799 4.36052 5.91272 4.07589C5.71827 3.85926 5.66572 3.80092 5.66572 3.6077C5.66572 3.41447 5.7179 3.35614 5.9131 3.13876C6.16761 2.85487 6.59405 2.38036 6.59405 1.54021V1.37783H4.87365V1.54021C4.87365 1.73343 4.82147 1.7914 4.62702 2.00803C4.37213 2.29192 3.94532 2.7668 3.94532 3.6077C3.94532 4.44859 4.37213 4.92384 4.62702 5.20736C4.82147 5.42399 4.87365 5.48233 4.87365 5.67555Z" fill="#FAFFFE"/>
</svg>
