<svg width="45" height="45" viewBox="0 0 45 45" fill="none" xmlns="http://www.w3.org/2000/svg">
<path d="M37.4139 0H27.3687V1.6473C27.3687 4.33244 25.1843 6.51676 22.4992 6.51676C19.8141 6.51676 17.6298 4.33244 17.6298 1.6473V0H7.58452L0 6.0695V16.3281H6.51598V45H38.4832V16.3281H45V6.0695L37.4139 0ZM35.1886 9.12394V41.7054H9.81137V9.12394H6.51676V13.0335H3.29539V7.65302L8.74283 3.29539H14.5037C15.2801 7.08844 18.5983 9.81215 22.5008 9.81215C26.4033 9.81215 29.7207 7.08922 30.4979 3.29539H36.2595L41.7062 7.65302V13.0335H38.4848V9.12394H35.1886Z" fill="#91CEC8"/>
<path d="M29.7223 26.8191C29.7223 25.9434 29.3703 25.1221 28.7301 24.5292L29.2097 24.0694C30.1058 23.2103 30.5995 22.0638 30.5995 20.8401C30.5995 19.6164 30.1058 18.4692 29.2097 17.6093C27.4057 15.8801 24.4717 15.8793 22.6685 17.6093L20.1172 20.0558L14.6351 14.5737L12.3059 16.903L17.7526 22.3496C17.1966 22.9465 16.8809 23.7048 16.8809 24.519C16.8809 25.3946 17.2329 26.2151 17.873 26.8293L18.3534 27.2687L17.6337 27.9585C16.8021 28.7561 16.3439 29.8215 16.3439 30.9578C16.3439 32.094 16.8014 33.1602 17.6337 33.9587C18.4699 34.7603 19.5676 35.1611 20.6653 35.1611C21.7629 35.1611 22.8606 34.7603 23.6969 33.9587L26.5883 31.1846L30.3656 34.9619L32.6948 32.6326L28.9435 28.8813C29.4396 28.301 29.7239 27.586 29.7239 26.8191H29.7223ZM26.9836 21.7488L26.5041 22.2087C25.8647 22.8229 25.5119 23.6426 25.5119 24.519C25.5119 24.9245 25.5954 25.3143 25.7395 25.6789L22.3913 22.3307L24.8938 19.9298C25.182 19.6535 25.5607 19.5156 25.9387 19.5156C26.3167 19.5156 26.6954 19.6542 26.9836 19.9298C27.2411 20.1771 27.3828 20.4999 27.3828 20.8393C27.3828 21.1787 27.2411 21.5015 26.9836 21.7488ZM19.8589 30.2782L20.5787 29.5884C21.2188 28.9742 21.5708 28.1545 21.5708 27.2781C21.5708 26.7411 21.4236 26.2308 21.1732 25.7702L24.3126 28.9097L21.4692 31.6373C21.0259 32.0633 20.3031 32.0641 19.8589 31.6373C19.6652 31.4523 19.5589 31.2105 19.5589 30.9578C19.5589 30.705 19.666 30.4633 19.8589 30.2782Z" fill="#91CEC8"/>
</svg>
