<svg width="100" height="113" viewBox="0 0 100 113" fill="none" xmlns="http://www.w3.org/2000/svg">
<path d="M75.0864 66.7077C73.4895 66.7077 72.1894 68.0064 72.1894 69.6017C72.1894 71.1969 73.4895 72.4957 75.0864 72.4957C76.6833 72.4957 77.9834 71.1969 77.9834 69.6017C77.9834 68.0064 76.6833 66.7077 75.0864 66.7077Z" fill="#ffffff"/>
<path d="M51.7472 98.2505C63.3407 98.2505 73.7732 91.3647 78.3234 80.7065C78.7537 79.6931 78.6973 78.5332 78.1637 77.5216C77.6396 76.527 76.719 75.8307 75.6406 75.613C72.6986 75.0162 70.5625 72.4018 70.5625 69.3953C70.5625 66.3887 72.6967 63.7743 75.6406 63.1794C76.734 62.958 77.6602 62.2579 78.1863 61.2595C78.7104 60.2648 78.7593 59.1068 78.3215 58.0859C73.7713 47.4277 63.3388 40.5419 51.7472 40.5419C35.8195 40.5419 22.8639 53.4859 22.8639 69.3953C22.8639 85.3046 35.8214 98.2486 51.7472 98.2486V98.2505ZM51.7472 47.9682C58.9971 47.9682 65.7699 51.6561 69.7058 57.6692C68.3587 58.5081 67.1451 59.5967 66.1344 60.8766C59.0854 60.2723 52.0628 61.7775 46.6502 65.0299C42.5471 62.5732 37.469 61.0981 32.1222 60.8016C35.5245 53.0618 43.2141 47.9664 51.7453 47.9664L51.7472 47.9682ZM63.2148 70.7747H63.1735C60.2596 70.7747 57.3758 70.3224 54.7588 69.4609C57.3683 68.6051 60.2427 68.1528 63.1547 68.1528H63.2017C63.1547 68.5826 63.1322 68.9936 63.1322 69.3953C63.1322 69.8419 63.1585 70.2961 63.2148 70.7728V70.7747ZM30.3318 68.1641C35.7763 68.196 40.8563 69.7237 44.4052 72.4244C50.1052 76.7353 58.0202 78.7697 66.2358 78.0415C67.2278 79.2708 68.4057 80.3161 69.7058 81.125C65.768 87.1401 58.9953 90.8279 51.7453 90.8279C39.9169 90.8279 30.2923 81.2132 30.2923 69.3971C30.2923 68.9974 30.3055 68.5845 30.3299 68.1641H30.3318Z" fill="#ffffff"/>
<path d="M0 0V113H100V0H0ZM47.5426 34.3936V21.2919H65.5726V37.6667H91.8032V104.81H8.19869V34.3936H47.5426ZM91.8032 21.2919V29.4783H73.7713V21.2919H91.8032ZM8.19869 26.2015V8.1902H91.8032V13.0998H39.344V26.2015H8.19869Z" fill="#ffffff"/>
<path d="M21.314 13.1017H13.1153V21.2919H21.314V13.1017Z" fill="#ffffff"/>
<path d="M34.4292 13.1017H26.2306V21.2919H34.4292V13.1017Z" fill="#ffffff"/>
</svg>
