<svg width="19" height="17" viewBox="0 0 19 17" fill="none" xmlns="http://www.w3.org/2000/svg">
<path d="M3.80453 0C5.07271 0 6.03139 0.456116 6.68057 1.36835C7.34485 2.26512 7.677 3.53297 7.677 5.1719C7.677 6.81082 7.3675 8.09413 6.74851 9.02183C6.12952 9.93406 5.14819 10.3902 3.80453 10.3902C2.97418 10.3902 2.27215 10.1814 1.69845 9.76398C1.13985 9.34652 0.717124 8.75125 0.430274 7.97817C0.143425 7.18963 0 6.25421 0 5.1719C0 3.53297 0.301947 2.26512 0.90584 1.36835C1.50973 0.456116 2.47596 0 3.80453 0ZM3.82717 2.36562C3.46484 2.36562 3.20064 2.59754 3.03456 3.06139C2.86849 3.52524 2.78546 4.23647 2.78546 5.19509C2.78546 6.13824 2.86849 6.84948 3.03456 7.32879C3.20064 7.80809 3.46484 8.04775 3.82717 8.04775C4.18951 8.04775 4.45371 7.80809 4.61979 7.32879C4.80095 6.84948 4.89154 6.13824 4.89154 5.19509C4.89154 4.23647 4.80095 3.52524 4.61979 3.06139C4.45371 2.59754 4.18951 2.36562 3.82717 2.36562ZM15.2861 0.231923L6.31824 16.7913H3.66865L12.6365 0.231923H15.2861ZM15.1275 6.60982C15.973 6.60982 16.6826 6.81855 17.2563 7.23602C17.83 7.63802 18.2602 8.22556 18.5471 8.99864C18.849 9.75625 19 10.6839 19 11.7817C19 13.4206 18.6905 14.704 18.0715 15.6316C17.4525 16.5439 16.4712 17 15.1275 17C14.2972 17 13.5952 16.7913 13.0215 16.3738C12.4629 15.9563 12.0401 15.3611 11.7533 14.588C11.4664 13.7995 11.323 12.864 11.323 11.7817C11.323 10.1428 11.6249 8.87494 12.2288 7.97817C12.8327 7.06594 13.799 6.60982 15.1275 6.60982ZM15.1502 8.97544C14.7878 8.97544 14.5236 9.20737 14.3576 9.67121C14.1915 10.1351 14.1085 10.8463 14.1085 11.8049C14.1085 12.7481 14.1915 13.4593 14.3576 13.9386C14.5236 14.4179 14.7878 14.6576 15.1502 14.6576C15.5125 14.6576 15.7767 14.4256 15.9428 13.9618C16.124 13.4825 16.2145 12.7635 16.2145 11.8049C16.2145 10.8463 16.124 10.1351 15.9428 9.67121C15.7767 9.20737 15.5125 8.97544 15.1502 8.97544Z" fill="white"/>
</svg>
