<svg width="88" height="115" viewBox="0 0 88 115" fill="none" xmlns="http://www.w3.org/2000/svg">
<path d="M52.5183 71.0966C51.949 70.25 51.1473 69.4787 50.1293 68.7914C50.7571 68.2491 51.3336 67.6066 51.8479 66.8674C52.6567 65.7131 53.0664 64.3761 53.0664 62.8907C53.0664 62.0549 52.905 61.185 52.5893 60.3081C52.2665 59.4132 51.745 58.5881 51.0338 57.8561C50.3279 57.1313 49.4198 56.5371 48.3379 56.0897C47.256 55.6422 45.9453 55.4167 44.4395 55.4167C43.1518 55.4167 41.9582 55.6297 40.8958 56.0485C39.8263 56.4691 38.8987 57.0454 38.1396 57.7595C37.3716 58.479 36.7739 59.3255 36.3607 60.2794C35.9492 61.2298 35.7399 62.2428 35.7399 63.288C35.7399 64.7269 36.0485 65.9762 36.6569 67.0035C37.1003 67.7462 37.7122 68.4496 38.4872 69.1046C38.2549 69.2961 38.0296 69.4948 37.8097 69.7042C37.3202 70.1713 36.8768 70.6921 36.4884 71.2541C36.0875 71.8339 35.77 72.4747 35.5466 73.153C35.3178 73.8438 35.2007 74.6026 35.2007 75.4098C35.2007 76.217 35.3532 77.0761 35.6548 77.9602C35.9616 78.8676 36.483 79.7213 37.2014 80.5016C37.9197 81.2783 38.8774 81.9262 40.048 82.4256C41.2133 82.9213 42.6783 83.1737 44.4005 83.1737C45.8673 83.1737 47.1868 82.9786 48.3237 82.5902C49.4819 82.1965 50.4734 81.6309 51.2662 80.9115C52.0678 80.183 52.678 79.3061 53.0788 78.3092C53.4725 77.3284 53.673 76.2564 53.673 75.1199C53.673 73.5932 53.2845 72.2402 52.5183 71.0984V71.0966ZM46.676 65.2406C46.2912 65.7864 45.7644 66.2894 45.1099 66.7386C43.8418 66.318 42.9301 65.7811 42.3963 65.1385C41.8305 64.4585 41.5556 63.7712 41.5556 63.0356C41.5556 62.7707 41.6106 62.4951 41.7188 62.2141C41.8287 61.9278 41.9972 61.6557 42.2242 61.3998C42.43 61.1636 42.7191 60.9613 43.0809 60.802C43.4463 60.641 43.9039 60.5604 44.4395 60.5604C44.9751 60.5604 45.4097 60.6445 45.7573 60.811C46.1227 60.9846 46.4277 61.1994 46.6583 61.4392C46.8818 61.6754 47.0378 61.9224 47.1319 62.1927C47.2329 62.479 47.2844 62.7385 47.2844 62.9622C47.2844 63.9018 47.0786 64.6696 46.676 65.2406ZM41.6744 72.9704C42.0806 72.3637 42.6091 71.8286 43.2494 71.374C43.8985 71.5583 44.4998 71.7641 45.0425 71.9914C45.642 72.2384 46.1706 72.5337 46.6069 72.8648C47.0095 73.1744 47.3074 73.5234 47.5185 73.9279C47.7225 74.3181 47.8253 74.7942 47.8253 75.3382C47.8253 75.6675 47.7597 76.004 47.6302 76.3315C47.5008 76.6537 47.3145 76.9311 47.0574 77.1816C46.8037 77.4304 46.4614 77.6344 46.0411 77.7884C45.1223 78.123 43.5864 78.1051 42.7758 77.7508C42.3431 77.5611 41.9884 77.3302 41.7259 77.0635C41.4722 76.8094 41.2984 76.5391 41.1938 76.2367C41.0803 75.9091 41.0217 75.6085 41.0217 75.3382C41.0217 74.404 41.2363 73.629 41.678 72.9722L41.6744 72.9704Z" fill="#91CEC8"/>
<path d="M72.6276 38.2604L76.7123 34.1404L81.306 38.7758L86.9957 33.0344L72.1204 18.0239L66.4306 23.7654L71.0243 28.4026L66.0794 33.3923C62.4719 31.2053 58.5894 29.573 54.5208 28.535V22.2298H61.0157V1H26.9871V22.228H33.4821V28.535C30.4403 29.31 27.4926 30.416 24.7009 31.8317C22.5779 29.7073 20.8078 28.322 19.3694 27.1945L18.0126 26.1189L17.3492 26.6594C12.7715 30.3856 4.24927 37.3244 4.24927 44.3902C4.24927 46.597 4.77604 48.7822 5.77636 50.7366C2.64947 56.8539 1 63.7175 1 70.6116C1 82.5365 5.95904 94.0678 14.6037 102.25C22.6701 109.885 33.005 114 43.9642 114C44.9077 114 45.8584 113.97 46.8091 113.909C68.6654 112.5 86.3093 94.0731 86.9798 71.961C87.3682 59.0785 82.1484 46.8457 72.6276 38.2622V38.2604ZM52.9706 9.11643V14.108H35.0304V9.11643H52.9706ZM65.6963 98.2432C60.5741 102.351 54.4959 104.896 48.0222 105.647V99.326H39.9771V105.647C33.5034 104.896 27.4252 102.351 22.3047 98.2432L26.7228 93.7868L21.0348 88.0453L16.6167 92.5035C12.5463 87.333 10.0224 81.2014 9.27926 74.6689H15.5419V66.5507H9.28103C9.66591 63.1788 10.5226 59.9054 11.835 56.7984C13.747 57.7702 15.8665 58.2821 18.0161 58.2821C25.6072 58.2821 31.7829 52.0503 31.7829 44.3902C31.7829 42.5432 31.1462 40.5083 29.8887 38.3338C31.2296 37.7378 32.6112 37.2259 34.0088 36.8071C36.9601 35.923 40.1668 35.4917 43.8152 35.4917H44.138C47.8661 35.4917 51.1314 35.9355 54.1217 36.8501C65.3345 40.2792 74.0589 49.0811 77.4572 60.3994C78.3635 63.4168 78.8052 66.71 78.8052 70.4666V70.7494C78.8052 74.5329 78.3582 77.8492 77.4395 80.8882C76.1589 85.1227 74.1246 89.0261 71.3861 92.5035L66.968 88.0453L61.2782 93.7868L65.6963 98.2432ZM46.4738 22.228V27.2911C44.8332 27.1945 43.2033 27.1963 41.5272 27.2965V22.2298H46.4738V22.228ZM18.0161 50.1621C14.8608 50.1621 12.2944 47.5724 12.2944 44.3884C12.2944 42.9889 14.7136 39.7172 18.0019 36.63C20.9319 39.3879 23.736 42.8081 23.736 44.3884C23.736 47.5724 21.1696 50.1621 18.0143 50.1621H18.0161Z" fill="#91CEC8"/>
<path d="M52.5183 71.0966C51.949 70.25 51.1473 69.4787 50.1293 68.7914C50.7571 68.2491 51.3336 67.6066 51.8479 66.8674C52.6567 65.7131 53.0664 64.3761 53.0664 62.8907C53.0664 62.0549 52.905 61.185 52.5893 60.3081C52.2665 59.4132 51.745 58.5881 51.0338 57.8561C50.3279 57.1313 49.4198 56.5371 48.3379 56.0897C47.256 55.6422 45.9453 55.4167 44.4395 55.4167C43.1518 55.4167 41.9582 55.6297 40.8958 56.0485C39.8263 56.4691 38.8987 57.0454 38.1396 57.7595C37.3716 58.479 36.7739 59.3255 36.3607 60.2794C35.9492 61.2298 35.7399 62.2428 35.7399 63.288C35.7399 64.7269 36.0485 65.9762 36.6569 67.0035C37.1003 67.7462 37.7122 68.4496 38.4872 69.1046C38.2549 69.2961 38.0296 69.4948 37.8097 69.7042C37.3202 70.1713 36.8768 70.6921 36.4884 71.2541C36.0875 71.8339 35.77 72.4747 35.5466 73.153C35.3178 73.8438 35.2007 74.6026 35.2007 75.4098C35.2007 76.217 35.3532 77.0761 35.6548 77.9602C35.9616 78.8676 36.483 79.7213 37.2014 80.5016C37.9197 81.2783 38.8774 81.9262 40.048 82.4256C41.2133 82.9213 42.6783 83.1737 44.4005 83.1737C45.8673 83.1737 47.1868 82.9786 48.3237 82.5902C49.4819 82.1965 50.4734 81.6309 51.2662 80.9115C52.0678 80.183 52.678 79.3061 53.0788 78.3092C53.4725 77.3284 53.673 76.2564 53.673 75.1199C53.673 73.5932 53.2845 72.2402 52.5183 71.0984V71.0966ZM46.676 65.2406C46.2912 65.7864 45.7644 66.2894 45.1099 66.7386C43.8418 66.318 42.9301 65.7811 42.3963 65.1385C41.8305 64.4585 41.5556 63.7712 41.5556 63.0356C41.5556 62.7707 41.6106 62.4951 41.7188 62.2141C41.8287 61.9278 41.9972 61.6557 42.2242 61.3998C42.43 61.1636 42.7191 60.9613 43.0809 60.802C43.4463 60.641 43.9039 60.5604 44.4395 60.5604C44.9751 60.5604 45.4097 60.6445 45.7573 60.811C46.1227 60.9846 46.4277 61.1994 46.6583 61.4392C46.8818 61.6754 47.0378 61.9224 47.1319 62.1927C47.2329 62.479 47.2844 62.7385 47.2844 62.9622C47.2844 63.9018 47.0786 64.6696 46.676 65.2406ZM41.6744 72.9704C42.0806 72.3637 42.6091 71.8286 43.2494 71.374C43.8985 71.5583 44.4998 71.7641 45.0425 71.9914C45.642 72.2384 46.1706 72.5337 46.6069 72.8648C47.0095 73.1744 47.3074 73.5234 47.5185 73.9279C47.7225 74.3181 47.8253 74.7942 47.8253 75.3382C47.8253 75.6675 47.7597 76.004 47.6302 76.3315C47.5008 76.6537 47.3145 76.9311 47.0574 77.1816C46.8037 77.4304 46.4614 77.6344 46.0411 77.7884C45.1223 78.123 43.5864 78.1051 42.7758 77.7508C42.3431 77.5611 41.9884 77.3302 41.7259 77.0635C41.4722 76.8094 41.2984 76.5391 41.1938 76.2367C41.0803 75.9091 41.0217 75.6085 41.0217 75.3382C41.0217 74.404 41.2363 73.629 41.678 72.9722L41.6744 72.9704Z" stroke="#91CEC8" stroke-miterlimit="10"/>
<path d="M72.6276 38.2604L76.7123 34.1404L81.306 38.7758L86.9957 33.0344L72.1204 18.0239L66.4306 23.7654L71.0243 28.4026L66.0794 33.3923C62.4719 31.2053 58.5894 29.573 54.5208 28.535V22.2298H61.0157V1H26.9871V22.228H33.4821V28.535C30.4403 29.31 27.4926 30.416 24.7009 31.8317C22.5779 29.7073 20.8078 28.322 19.3694 27.1945L18.0126 26.1189L17.3492 26.6594C12.7715 30.3856 4.24927 37.3244 4.24927 44.3902C4.24927 46.597 4.77604 48.7822 5.77636 50.7366C2.64947 56.8539 1 63.7175 1 70.6116C1 82.5365 5.95904 94.0678 14.6037 102.25C22.6701 109.885 33.005 114 43.9642 114C44.9077 114 45.8584 113.97 46.8091 113.909C68.6654 112.5 86.3093 94.0731 86.9798 71.961C87.3682 59.0785 82.1484 46.8457 72.6276 38.2622V38.2604ZM52.9706 9.11643V14.108H35.0304V9.11643H52.9706ZM65.6963 98.2432C60.5741 102.351 54.4959 104.896 48.0222 105.647V99.326H39.9771V105.647C33.5034 104.896 27.4252 102.351 22.3047 98.2432L26.7228 93.7868L21.0348 88.0453L16.6167 92.5035C12.5463 87.333 10.0224 81.2014 9.27926 74.6689H15.5419V66.5507H9.28103C9.66591 63.1788 10.5226 59.9054 11.835 56.7984C13.747 57.7702 15.8665 58.2821 18.0161 58.2821C25.6072 58.2821 31.7829 52.0503 31.7829 44.3902C31.7829 42.5432 31.1462 40.5083 29.8887 38.3338C31.2296 37.7378 32.6112 37.2259 34.0088 36.8071C36.9601 35.923 40.1668 35.4917 43.8152 35.4917H44.138C47.8661 35.4917 51.1314 35.9355 54.1217 36.8501C65.3345 40.2792 74.0589 49.0811 77.4572 60.3994C78.3635 63.4168 78.8052 66.71 78.8052 70.4666V70.7494C78.8052 74.5329 78.3582 77.8492 77.4395 80.8882C76.1589 85.1227 74.1246 89.0261 71.3861 92.5035L66.968 88.0453L61.2782 93.7868L65.6963 98.2432ZM46.4738 22.228V27.2911C44.8332 27.1945 43.2033 27.1963 41.5272 27.2965V22.2298H46.4738V22.228ZM18.0161 50.1621C14.8608 50.1621 12.2944 47.5724 12.2944 44.3884C12.2944 42.9889 14.7136 39.7172 18.0019 36.63C20.9319 39.3879 23.736 42.8081 23.736 44.3884C23.736 47.5724 21.1696 50.1621 18.0143 50.1621H18.0161Z" stroke="#91CEC8" stroke-miterlimit="10"/>
</svg>
