<svg width="407" height="113" viewBox="0 0 407 113" fill="none" xmlns="http://www.w3.org/2000/svg">
<path d="M75.0864 66.7077C73.4895 66.7077 72.1894 68.0064 72.1894 69.6017C72.1894 71.1969 73.4895 72.4957 75.0864 72.4957C76.6833 72.4957 77.9834 71.1969 77.9834 69.6017C77.9834 68.0064 76.6833 66.7077 75.0864 66.7077Z" fill="#91CFC8"/>
<path d="M51.7472 98.2505C63.3407 98.2505 73.7732 91.3647 78.3234 80.7065C78.7537 79.6931 78.6973 78.5332 78.1637 77.5216C77.6396 76.527 76.719 75.8307 75.6406 75.613C72.6986 75.0162 70.5625 72.4018 70.5625 69.3953C70.5625 66.3887 72.6967 63.7743 75.6406 63.1794C76.734 62.958 77.6602 62.2579 78.1863 61.2595C78.7104 60.2648 78.7593 59.1068 78.3215 58.0859C73.7713 47.4277 63.3388 40.5419 51.7472 40.5419C35.8195 40.5419 22.8639 53.4859 22.8639 69.3953C22.8639 85.3046 35.8214 98.2486 51.7472 98.2486V98.2505ZM51.7472 47.9682C58.9971 47.9682 65.7699 51.6561 69.7058 57.6692C68.3587 58.5081 67.1451 59.5967 66.1344 60.8766C59.0854 60.2723 52.0628 61.7775 46.6502 65.0299C42.5471 62.5732 37.469 61.0981 32.1222 60.8016C35.5245 53.0618 43.2141 47.9664 51.7453 47.9664L51.7472 47.9682ZM63.2148 70.7747H63.1735C60.2596 70.7747 57.3758 70.3224 54.7588 69.4609C57.3683 68.6051 60.2427 68.1528 63.1547 68.1528H63.2017C63.1547 68.5826 63.1322 68.9936 63.1322 69.3953C63.1322 69.8419 63.1585 70.2961 63.2148 70.7728V70.7747ZM30.3318 68.1641C35.7763 68.196 40.8563 69.7237 44.4052 72.4244C50.1052 76.7353 58.0202 78.7697 66.2358 78.0415C67.2278 79.2708 68.4057 80.3161 69.7058 81.125C65.768 87.1401 58.9953 90.8279 51.7453 90.8279C39.9169 90.8279 30.2923 81.2132 30.2923 69.3971C30.2923 68.9974 30.3055 68.5845 30.3299 68.1641H30.3318Z" fill="#91CFC8"/>
<path d="M0 0V113H100V0H0ZM47.5426 34.3936V21.2919H65.5726V37.6667H91.8032V104.81H8.19869V34.3936H47.5426ZM91.8032 21.2919V29.4783H73.7713V21.2919H91.8032ZM8.19869 26.2015V8.1902H91.8032V13.0998H39.344V26.2015H8.19869Z" fill="#91CFC8"/>
<path d="M21.314 13.1017H13.1153V21.2919H21.314V13.1017Z" fill="#91CFC8"/>
<path d="M34.4292 13.1017H26.2306V21.2919H34.4292V13.1017Z" fill="#91CFC8"/>
<path d="M248.998 8.87612V0.0053697C248.703 0.0447475 248.408 0.112764 248.119 0.218368C238.371 3.74268 227.614 6.36131 216.121 8.00622C215.61 6.24138 213.975 4.9455 212.038 4.9455H202.031C199.69 4.9455 197.785 6.841 197.785 9.17145V9.72453C192.346 9.95722 186.695 9.95722 181.256 9.72453V9.17145C181.256 6.841 179.35 4.9455 177.008 4.9455H167.001C165.066 4.9455 163.428 6.23959 162.919 8.00622C151.428 6.3631 140.671 3.74447 130.915 0.216578C130.613 0.109184 130.308 0.0375879 130 0V8.86359C140.092 12.3485 151.091 14.9224 162.755 16.5279V25.5401L150.491 30.1169C149.926 30.3299 149.404 30.6646 148.987 31.0834L131.473 48.5135C129.987 49.9937 129.82 52.3671 131.079 54.0371C143.196 70.1176 145.581 73.2821 146.097 73.9497L146.09 73.9551C147.457 75.779 150.003 76.1979 151.886 74.9109L157.721 70.9355C157.068 80.8946 155.273 108.309 155.259 108.497C155.185 109.631 154.885 113 154.885 113H223.979C223.979 113 223.858 109.66 223.785 108.498L221.324 70.9355C226.329 74.3471 227.047 74.8357 227.153 74.9091C227.891 75.4121 228.729 75.6555 229.558 75.6555C230.851 75.6555 232.121 75.0666 232.953 73.9569L247.966 54.0371C249.225 52.3653 249.056 49.9937 247.572 48.5135L230.06 31.087C229.637 30.6646 229.115 30.3281 228.547 30.1151L216.288 25.5401V16.5279C227.936 14.9242 238.923 12.3539 249 8.87791H248.998V8.87612ZM206.278 13.3974H207.792V29.8448H206.278V13.3974ZM181.256 18.1854C184.192 18.3143 186.909 18.3769 189.519 18.3769C192.129 18.3769 194.846 18.3161 197.783 18.1854V28.0388C192.479 30.5805 186.558 30.5805 181.255 28.0388V18.1854H181.256ZM177.008 38.2967C178.282 38.2967 179.438 37.7275 180.213 36.8004C183.256 37.9101 186.379 38.4721 189.519 38.4721C192.659 38.4721 195.783 37.9101 198.825 36.8004C199.601 37.7275 200.756 38.2967 202.029 38.2967H202.076C200.29 43.6038 195.298 47.2749 189.519 47.2749C183.74 47.2749 178.749 43.6056 176.962 38.2967H177.008ZM171.248 13.3974H172.762V29.8448H171.248V13.3974ZM224.698 37.706L238.955 51.8964L228.592 65.6482L220.616 60.214L220.153 53.1815H211.643L215.008 104.545H164.028L167.393 53.1815H158.881L158.419 60.214L150.442 65.6482L140.079 51.8964L154.338 37.706L162.778 34.5576C163.021 36.6607 164.821 38.2967 166.998 38.2967H168.19C170.19 48.3363 179.1 55.7268 189.517 55.7268C199.934 55.7268 208.844 48.3345 210.846 38.2967H212.037C214.215 38.2967 216.013 36.6607 216.256 34.5576L224.7 37.706H224.698Z" fill="#91CEC8"/>
<path d="M406.125 103.836C402.511 103.836 399.572 100.901 399.572 97.2922V47.1855L394.045 41.6649L399.528 36.1904C401.963 33.759 403.296 30.5739 403.284 27.2208C403.272 23.9216 401.977 20.8185 399.634 18.4811C397.28 16.1297 394.151 14.8341 390.821 14.8341H354.139C352.574 14.8341 351.301 13.5624 351.301 11.9988C351.301 10.4352 352.574 9.16357 354.139 9.16357H381.007V0H354.139C347.515 0 342.125 5.38057 342.125 11.9988C342.125 18.6171 347.515 23.9976 354.139 23.9976H390.821C391.698 23.9976 392.525 24.3395 393.148 24.9594C394.473 26.283 394.427 28.3265 393.042 29.7121L387.56 35.1887L382.034 29.6681H350.428C316.825 29.6681 288.942 55.6632 286.592 89.0024H286.428V103.836H279V113H407V103.836H406.125ZM295.791 89.0024C298.144 60.7939 321.964 38.8297 350.428 38.8297H378.232L390.399 50.9785V89.0004H295.791V89.0024ZM295.603 103.836V98.1659H390.425C390.535 100.131 391.012 102.057 391.832 103.836H295.601H295.603Z" fill="#91CFC8"/>
<path d="M347.627 44.5002C327.488 44.5002 310.014 58.1266 305.129 77.6414L303.705 83.3339H384.721V54.6035L374.607 44.5022H347.627V44.5002ZM356.978 68.4978V74.1683H351.301V68.4978H356.978ZM342.125 59.3342V74.1663H315.99C321.54 61.6676 333.817 53.6638 347.627 53.6638H370.807L375.546 58.3965V74.1663H366.154V59.3342H342.125Z" fill="#91CFC8"/>
<path d="M283.951 45.374V46.2477H293.127V45.374C293.127 40.8531 290.854 38.2978 289.493 36.7642C288.406 35.5486 288.177 35.2546 288.177 34.2489C288.177 33.2432 288.456 32.8973 289.499 31.7236C290.856 30.196 293.127 27.6427 293.127 23.1219V22.2481H283.951V23.1219C283.951 24.1616 283.673 24.4755 282.636 25.6412C281.276 27.1668 279.002 29.7161 279.002 34.2489C279.002 38.7817 281.276 41.329 282.636 42.8566C283.673 44.0223 283.951 44.3342 283.951 45.374Z" fill="#91CFC8"/>
<path d="M304.993 30.5399V31.4137H314.168V30.5399C314.168 26.0171 311.896 23.4638 310.535 21.9322C309.497 20.7665 309.217 20.4526 309.217 19.4128C309.217 18.3731 309.495 18.0592 310.537 16.8895C311.894 15.3619 314.168 12.8086 314.168 8.2878V7.41403H304.993V8.2878C304.993 9.32752 304.715 9.63944 303.677 10.8051C302.318 12.3327 300.042 14.888 300.042 19.4128C300.042 23.9376 302.318 26.495 303.677 28.0206C304.715 29.1863 304.993 29.5002 304.993 30.5399Z" fill="#91CFC8"/>
</svg>
