<svg width="116" height="53" viewBox="0 0 116 53" fill="none" xmlns="http://www.w3.org/2000/svg">
<path d="M23.4876 33.6054C24.6497 33.6054 25.5917 34.5344 25.5917 35.6804C25.5917 36.8264 24.6497 37.7554 23.4876 37.7554C22.3255 37.7554 21.3835 36.8264 21.3835 35.6804C21.3835 34.5344 22.3255 33.6054 23.4876 33.6054ZM29.1421 35.6291C29.8656 35.6291 30.4522 36.2076 30.4522 36.9212C30.4522 37.6347 29.8656 38.2132 29.1421 38.2132C28.4186 38.2132 27.8319 37.6347 27.8319 36.9212C27.8319 36.2076 28.4186 35.6291 29.1421 35.6291ZM33.5471 33.7403C33.8033 33.7403 34.0113 33.9456 34.0113 34.1981C34.0113 34.4507 33.8033 34.6559 33.5471 34.6559C33.291 34.6559 33.0829 34.4507 33.0829 34.1981C33.0829 33.9456 33.291 33.7403 33.5471 33.7403ZM29.9344 32.1712C30.3722 32.1712 30.7267 32.5209 30.7267 32.9526C30.7267 33.3844 30.3722 33.734 29.9344 33.734C29.4966 33.734 29.1421 33.3844 29.1421 32.9526C29.1421 32.5209 29.4966 32.1712 29.9344 32.1712ZM48.3271 10.5709C47.2842 9.20858 46.1125 7.94415 44.8256 6.80285C44.8104 6.79337 44.8008 6.77838 44.7856 6.76812C43.1793 5.34661 41.3985 4.11217 39.4833 3.10347C39.4785 3.09873 39.4681 3.09873 39.4633 3.094C38.0963 2.37575 36.6597 1.77589 35.1734 1.29364C32.5547 0.45226 29.7663 0 26.8691 0C15.9204 0 6.48357 6.48792 2.29858 15.7754C1.67512 17.1622 1.1661 18.6137 0.792339 20.1141C0.787537 20.1236 0.787537 20.1386 0.782735 20.1489C0.273717 22.1757 0 24.2958 0 26.475V26.5192C1.60629 27.9359 3.38705 29.1704 5.30707 30.1791C5.30707 30.1641 5.30227 30.1546 5.30227 30.1396C6.74368 30.8973 8.26513 31.5319 9.84581 32.0189L9.85141 32.0236C10.3756 33.5998 11.1192 35.0758 12.0508 36.416C15.2777 41.0894 20.7145 44.1684 26.8699 44.1684C36.7509 44.1684 44.7864 36.2392 44.7864 26.4994C44.7864 25.0187 44.6015 23.5822 44.2477 22.2105C42.976 24.321 41.4449 26.2587 39.709 27.9951C38.9559 34.3213 33.4839 39.2495 26.8699 39.2495C24.1167 39.2495 21.558 38.3987 19.4579 36.9377C18.0261 35.9488 16.804 34.6796 15.882 33.2092L15.8524 33.165C16.5359 33.2194 17.2242 33.2439 17.9173 33.2439C26.601 33.2439 34.3371 29.1609 39.2504 22.8356C39.2552 22.8553 39.26 22.8703 39.2656 22.89C40.5077 21.306 41.565 19.575 42.4181 17.7352V17.7321C41.4513 16.0635 40.2132 14.5655 38.767 13.2979L38.7622 13.2931C37.7746 12.4273 36.6925 11.6648 35.5248 11.0303H35.52C32.9565 9.62375 30.0088 8.82657 26.8715 8.82657C18.3775 8.82657 11.2448 14.6854 9.40882 22.5207C10.8799 23.2981 12.4709 23.8782 14.1476 24.2326C15.2297 18.2759 20.5224 13.7454 26.8715 13.7454C29.3558 13.7454 31.6743 14.4392 33.6448 15.6444C34.7268 16.2987 35.7049 17.1149 36.5428 18.0502L36.5476 18.0549C36.478 18.163 36.1483 18.665 36.049 18.8079C35.949 18.9507 35.2311 19.9294 35.1214 20.062C34.6876 20.6082 33.5455 21.8379 33.4407 21.9413C32.9117 22.463 32.3586 22.9595 31.78 23.4315C31.6599 23.5302 31.5407 23.628 31.4158 23.7164C31.1413 23.928 30.862 24.1347 30.5779 24.336C30.3986 24.4591 30.2185 24.5823 30.0344 24.7046C29.6703 24.9453 28.5378 25.6099 28.3433 25.7133C28.0736 25.8657 27.7943 26.0038 27.5158 26.1364C27.4757 26.1514 25.9847 26.8104 25.5701 26.9628C25.3604 27.0362 24.2536 27.4055 23.9094 27.4987C22.0038 28.0401 19.9942 28.3251 17.9189 28.3251C16.5919 28.3251 15.2905 28.2067 14.0284 27.9809V27.9659C12.2524 27.651 10.5517 27.1246 8.95103 26.4118V26.4316C7.58965 25.8262 6.30269 25.089 5.11018 24.2326C5.11018 24.2231 5.11018 24.2129 5.11499 24.2034C5.26465 22.8064 5.54877 21.4536 5.95775 20.1504C8.71093 11.3404 17.0457 4.92119 26.8715 4.92119C30.1433 4.92119 33.251 5.6347 36.0442 6.90861C37.3208 7.49426 38.5381 8.19751 39.6658 9.00416C39.6706 9.0089 39.6754 9.0089 39.681 9.01363C41.3073 10.1747 42.7631 11.552 44.0052 13.0966C44.0148 13.1116 44.03 13.1258 44.0404 13.1408C45.0633 14.41 45.9404 15.8023 46.6544 17.2877C48.2742 20.6477 49.0354 24.4923 48.66 28.5208C47.7004 38.8281 39.2656 47.1077 28.8091 47.998C18.9361 48.8386 10.2628 43.1778 6.71167 34.8785C4.50673 34.0229 2.42744 32.9155 0.506617 31.5974C3.01969 44.301 14.7727 53.7874 28.5682 52.9484C42.1652 52.1212 53.0923 41.158 53.7134 27.737C54.0119 21.2862 51.9598 15.3153 48.3303 10.574L48.3271 10.5709ZM75.0289 19.7455C75.0521 18.4487 74.8568 17.2474 74.4454 16.144C74.0349 15.0438 73.4434 14.0943 72.6679 13.2947C71.8891 12.496 70.9727 11.8622 69.9163 11.3989C68.859 10.9355 67.7161 10.7043 66.4948 10.7043C65.1094 10.7043 63.8329 10.9434 62.67 11.4146C61.5071 11.8929 60.5051 12.5654 59.6711 13.4336C58.8372 14.3018 58.1833 15.3295 57.7135 16.5103C57.2437 17.6918 57.0092 19.0044 57.0092 20.4401C57.0092 22.2468 57.4278 23.853 58.2617 25.254C59.0957 26.6589 60.2578 27.767 61.7536 28.5776C63.2454 29.3882 64.9678 29.7939 66.9166 29.7939C67.7858 29.7939 68.6702 29.6779 69.5625 29.4466C70.4549 29.2154 71.3081 28.8949 72.1188 28.4892C72.9288 28.0835 73.6531 27.5934 74.2878 27.0109L72.1348 24.0574C71.2897 24.7756 70.5022 25.2737 69.7746 25.5515C69.0463 25.8293 68.2484 25.9683 67.3752 25.9683C66.1307 25.9683 65.0422 25.733 64.1146 25.254C63.187 24.7788 62.4707 24.1032 61.9657 23.2192C61.6247 22.6288 61.3983 21.9682 61.2886 21.2389H74.9929L75.0289 19.7455ZM61.8056 17.0509C62.205 16.2285 62.7997 15.5955 63.5864 15.1558C64.3731 14.7154 65.3439 14.496 66.4948 14.496C67.2463 14.496 67.9354 14.6507 68.5573 14.9633C69.18 15.2758 69.6922 15.7083 70.0916 16.253C70.4909 16.7976 70.7254 17.4266 70.7959 18.1449V18.3185H61.3814C61.4791 17.8512 61.6199 17.4306 61.804 17.0525L61.8056 17.0509ZM86.8403 29.7939C85.1004 29.7939 83.5381 29.3772 82.1511 28.5421C80.7641 27.7078 79.6709 26.5721 78.8721 25.134C78.0726 23.6967 77.6732 22.0739 77.6732 20.2657C77.6732 18.4574 78.0726 16.8354 78.8721 15.3974C79.6709 13.9601 80.7641 12.8243 82.1511 11.99C83.5381 11.1558 85.1004 10.7382 86.8403 10.7382C88.5803 10.7382 90.0257 11.0508 91.3887 11.6767C92.7517 12.3026 93.8097 13.1716 94.562 14.2845L92.1642 17.1354C91.8121 16.6484 91.3647 16.208 90.8244 15.8141C90.2834 15.4203 89.708 15.1069 89.0973 14.8756C88.4858 14.6444 87.8752 14.5276 87.2637 14.5276C86.2297 14.5276 85.3069 14.777 84.4961 15.275C83.6846 15.7739 83.0443 16.4574 82.5745 17.3264C82.1039 18.1954 81.8694 19.1757 81.8694 20.2649C81.8694 21.3541 82.1103 22.3289 82.5921 23.186C83.0739 24.044 83.7262 24.7283 84.549 25.2374C85.3717 25.748 86.2881 26.003 87.2997 26.003C87.9104 26.003 88.5042 25.9043 89.0797 25.7078C89.6559 25.5113 90.2018 25.2271 90.7196 24.8562C91.2366 24.4852 91.7184 24.0219 92.165 23.4654L94.5628 26.3519C93.7633 27.3724 92.6644 28.2004 91.2662 28.8381C89.8672 29.475 88.3922 29.7939 86.8403 29.7939ZM106.374 29.7939C104.517 29.7939 102.86 29.3827 101.403 28.5595C99.9443 27.737 98.7934 26.6068 97.9467 25.1695C97.1007 23.7322 96.6773 22.0984 96.6773 20.2665C96.6773 18.4345 97.1007 16.8015 97.9467 15.3634C98.7926 13.9261 99.9443 12.7959 101.403 11.9734C102.86 11.151 104.517 10.739 106.374 10.739C108.232 10.739 109.853 11.151 111.311 11.9734C112.768 12.7967 113.914 13.9269 114.748 15.3634C115.582 16.8007 116 18.4353 116 20.2665C116 22.0976 115.582 23.7322 114.748 25.1695C113.914 26.6068 112.767 27.737 111.311 28.5595C109.853 29.3827 108.208 29.7939 106.374 29.7939ZM106.374 26.0038C107.384 26.0038 108.284 25.7488 109.071 25.2382C109.859 24.7283 110.482 24.0448 110.94 23.1868C111.399 22.3297 111.616 21.3557 111.593 20.2657C111.616 19.1528 111.399 18.1678 110.94 17.3098C110.482 16.4526 109.859 15.7746 109.071 15.2758C108.284 14.7778 107.384 14.5284 106.374 14.5284C105.364 14.5284 104.453 14.7778 103.642 15.2758C102.83 15.7746 102.201 16.4582 101.756 17.3272C101.309 18.1962 101.086 19.1765 101.086 20.2657C101.086 21.3549 101.308 22.3297 101.756 23.1868C102.201 24.0448 102.831 24.7291 103.642 25.2382C104.453 25.7488 105.363 26.0038 106.374 26.0038ZM73.6723 36.5092C73.6723 37.0782 73.5979 37.5999 73.449 38.0743C73.3001 38.5487 73.0864 38.9567 72.8071 39.2977C72.5278 39.6387 72.1789 39.9047 71.7611 40.0941C71.3425 40.2835 70.8687 40.379 70.3405 40.379C69.9843 40.379 69.657 40.3364 69.3593 40.2512C69.0607 40.1659 68.8158 40.0712 68.6237 39.9662V42.8542H66.8782V33.0229C67.2336 32.9282 67.6713 32.8382 68.1908 32.7529C68.7102 32.6677 69.2584 32.6251 69.8355 32.6251C70.4125 32.6251 70.9655 32.7151 71.4369 32.895C71.9083 33.075 72.3101 33.3339 72.6415 33.6701C72.9736 34.0071 73.2281 34.4144 73.4066 34.8935C73.5843 35.3726 73.6723 35.9109 73.6723 36.5092ZM71.8835 36.5376C71.8835 35.7688 71.7075 35.1713 71.3569 34.7451C71.0056 34.3181 70.4413 34.105 69.6618 34.105C69.4985 34.105 69.328 34.1121 69.1496 34.1263C68.9711 34.1405 68.7958 34.1713 68.6229 34.2186V38.4729C68.7766 38.5771 68.9815 38.6749 69.236 38.7649C69.4905 38.8549 69.7626 38.8999 70.0508 38.8999C70.6854 38.8999 71.1496 38.6868 71.4426 38.2598C71.7363 37.8328 71.8835 37.2582 71.8835 36.5376ZM77.9861 32.5967C78.5632 32.5967 79.049 32.6677 79.4428 32.8098C79.8373 32.9519 80.1519 33.1515 80.388 33.4073C80.6241 33.6638 80.7921 33.974 80.893 34.3394C80.9938 34.7048 81.0443 35.1058 81.0443 35.5415V40.0515C80.7745 40.1083 80.3688 40.177 79.8253 40.2575C79.2819 40.338 78.6688 40.3782 77.9861 40.3782C77.534 40.3782 77.1202 40.3356 76.7456 40.2504C76.3711 40.1651 76.0509 40.0278 75.786 39.8376C75.5211 39.6481 75.3146 39.4011 75.1657 39.0972C75.0169 38.7941 74.9424 38.4192 74.9424 37.9733C74.9424 37.5273 75.0265 37.1864 75.1946 36.892C75.3626 36.5983 75.5915 36.3584 75.8804 36.1737C76.1686 35.989 76.5031 35.8564 76.8825 35.7751C77.2626 35.6946 77.6596 35.6544 78.0726 35.6544C78.2647 35.6544 78.4664 35.6662 78.6784 35.6899C78.8897 35.7136 79.1162 35.7538 79.3563 35.8106V35.5257C79.3563 35.3268 79.3323 35.1374 79.2843 34.9566C79.2355 34.7767 79.1522 34.618 79.0314 34.4799C78.9113 34.3426 78.7529 34.236 78.5552 34.1595C78.3575 34.0837 78.1102 34.0458 77.8125 34.0458C77.4083 34.0458 77.0377 34.0742 76.7016 34.131C76.3646 34.1879 76.0909 34.2542 75.8796 34.3307L75.6636 32.9361C75.8845 32.8603 76.207 32.7845 76.6296 32.708C77.0529 32.6322 77.5043 32.5943 77.9854 32.5943L77.9861 32.5967ZM78.1302 39.0136C78.6688 39.0136 79.0778 38.9851 79.3563 38.9283V37.0222C79.2603 36.9938 79.1202 36.9654 78.9378 36.9369C78.7553 36.9085 78.5528 36.8943 78.3319 36.8943C78.139 36.8943 77.9445 36.9085 77.7476 36.9369C77.5508 36.9654 77.3723 37.0175 77.2138 37.0932C77.0553 37.1698 76.9273 37.2763 76.8312 37.4137C76.7352 37.5518 76.6864 37.7247 76.6864 37.933C76.6864 38.3411 76.8161 38.6229 77.0762 38.7791C77.3355 38.9354 77.6876 39.0136 78.1302 39.0136ZM86.1368 34.2044C86.1272 34.622 86.1128 35.0561 86.0936 35.506C86.0744 35.9567 86.0288 36.4002 85.9568 36.8367C85.8847 37.2732 85.7719 37.6907 85.6174 38.0885C85.4637 38.4863 85.2501 38.8446 84.9755 39.1627C84.7018 39.4808 84.3601 39.746 83.9511 39.9591C83.5421 40.1722 83.0443 40.308 82.4577 40.3648L82.2128 38.9283C82.7034 38.8336 83.0835 38.6797 83.3524 38.4658C83.6221 38.2527 83.8286 37.9796 83.9727 37.6473C84.0879 37.401 84.1768 37.1208 84.24 36.8083C84.3025 36.4949 84.3505 36.1658 84.3841 35.8193C84.4177 35.4728 84.4393 35.12 84.4489 34.7593C84.4585 34.3986 84.4633 34.0482 84.4633 33.7064V32.7822H89.8008V40.2227H88.0552V34.2044H86.1368ZM93.7681 35.5273C93.9121 35.4894 94.1243 35.4562 94.4028 35.4278C94.6813 35.3994 94.9606 35.3852 95.2399 35.3852C95.6729 35.3852 96.0787 35.4326 96.4588 35.5273C96.8382 35.622 97.1679 35.7712 97.4473 35.9756C97.7258 36.18 97.9475 36.4405 98.1107 36.7578C98.274 37.0759 98.3557 37.4524 98.3557 37.8888C98.3557 38.3253 98.2788 38.7144 98.1252 39.027C97.9715 39.3403 97.7498 39.596 97.4617 39.7957C97.1727 39.9954 96.8294 40.1422 96.43 40.2369C96.0307 40.3317 95.5865 40.379 95.0959 40.379C94.5284 40.379 93.9994 40.3506 93.5088 40.2938C93.0182 40.2369 92.5228 40.1509 92.0233 40.0373V32.7814H93.7689L93.7681 35.5273ZM95.0518 39.027C95.5425 39.027 95.925 38.9346 96.1987 38.7499C96.4725 38.5652 96.6101 38.2685 96.6101 37.8604C96.6101 37.652 96.5645 37.476 96.4733 37.334C96.382 37.1919 96.262 37.0759 96.1123 36.9851C95.9634 36.8951 95.7874 36.8312 95.5857 36.7933C95.3832 36.7554 95.1719 36.7365 94.951 36.7365C94.7493 36.7365 94.5372 36.7436 94.3163 36.7578C94.0946 36.772 93.9121 36.798 93.7681 36.8359V38.9559C93.8929 38.9749 94.0778 38.9915 94.3235 39.0057C94.5684 39.0199 94.8117 39.027 95.0518 39.027ZM106.276 40.2227H104.53V37.1066H101.688V40.2227H99.9427V32.7822H101.688V35.6843H104.53V32.7822H106.276V40.2227ZM111.83 37.4626H111.484C111.368 37.4626 111.258 37.4579 111.152 37.4484C110.844 37.9038 110.56 38.3711 110.301 38.8494C110.041 39.3285 109.801 39.7863 109.58 40.222H107.791C108.05 39.6339 108.339 39.0696 108.657 38.5289C108.974 37.9883 109.272 37.5281 109.551 37.1493C109.079 36.9496 108.736 36.682 108.52 36.3458C108.304 36.0095 108.195 35.6125 108.195 35.1579C108.195 34.7404 108.274 34.3734 108.433 34.0553C108.591 33.738 108.815 33.472 109.103 33.2589C109.392 33.0458 109.738 32.884 110.142 32.775C110.546 32.6661 110.993 32.6117 111.484 32.6117C112.051 32.6117 112.602 32.6448 113.136 32.7111C113.669 32.7774 114.104 32.854 114.441 32.9392V40.2235H112.695V37.4634L111.83 37.4626ZM112.696 34.034C112.591 34.015 112.426 33.9984 112.206 33.9842C111.984 33.97 111.758 33.9629 111.528 33.9629C110.46 33.9629 109.926 34.352 109.926 35.1295C109.926 35.3379 109.967 35.5115 110.049 35.6488C110.13 35.7862 110.243 35.8975 110.387 35.9827C110.531 36.0679 110.699 36.1279 110.892 36.1603C111.084 36.1934 111.291 36.21 111.512 36.21H112.695L112.696 34.034ZM64.6556 34.8943C64.4772 34.4152 64.2227 34.0071 63.8905 33.6709C63.5584 33.3347 63.1574 33.0758 62.686 32.8958C62.2146 32.7159 61.6808 32.6259 61.0845 32.6259C60.4883 32.6259 59.9592 32.6685 59.4398 32.7537C58.9204 32.839 58.4826 32.9297 58.1273 33.0237V40.2227H59.8728V34.2186C60.0457 34.1713 60.2209 34.1405 60.3994 34.1263C60.5779 34.1121 60.7484 34.105 60.9116 34.105C61.6912 34.105 62.2554 34.3181 62.6068 34.7451C62.622 34.764 62.638 34.783 62.6532 34.8027C62.9477 35.1721 63.107 35.6315 63.107 36.1019V40.2306H64.8525V36.1027C64.8525 35.6946 64.7989 35.285 64.6581 34.9022C64.6572 34.8998 64.6564 34.8966 64.6556 34.8943Z" fill="#91CFC8"/>
</svg>
