<svg width="217" height="99" viewBox="0 0 217 99" fill="none" xmlns="http://www.w3.org/2000/svg">
<path d="M43.9381 62.7723C46.112 62.7723 47.8742 64.5076 47.8742 66.6483C47.8742 68.789 46.112 70.5243 43.9381 70.5243C41.7642 70.5243 40.002 68.789 40.002 66.6483C40.002 64.5076 41.7642 62.7723 43.9381 62.7723ZM54.5158 66.5525C55.8692 66.5525 56.9667 67.6332 56.9667 68.9659C56.9667 70.2987 55.8692 71.3794 54.5158 71.3794C53.1623 71.3794 52.0648 70.2987 52.0648 68.9659C52.0648 67.6332 53.1623 66.5525 54.5158 66.5525ZM62.7563 63.0244C63.2354 63.0244 63.6247 63.4077 63.6247 63.8795C63.6247 64.3513 63.2354 64.7346 62.7563 64.7346C62.2772 64.7346 61.8879 64.3513 61.8879 63.8795C61.8879 63.4077 62.2772 63.0244 62.7563 63.0244ZM55.998 60.0935C56.8169 60.0935 57.4802 60.7466 57.4802 61.553C57.4802 62.3595 56.8169 63.0126 55.998 63.0126C55.179 63.0126 54.5158 62.3595 54.5158 61.553C54.5158 60.7466 55.179 60.0935 55.998 60.0935ZM90.4049 19.7456C88.4541 17.2009 86.2622 14.8391 83.8547 12.7072C83.8263 12.6895 83.8083 12.6615 83.7799 12.6423C80.775 9.98707 77.4437 7.68123 73.861 5.79704C73.852 5.7882 73.8325 5.7882 73.8235 5.77935C71.2663 4.43772 68.5789 3.31723 65.7986 2.41642C60.8998 0.844788 55.6836 0 50.2637 0C29.7821 0 12.1288 12.1189 4.29993 29.4673C3.13362 32.0577 2.18141 34.769 1.48222 37.5717C1.47324 37.5894 1.47324 37.6174 1.46425 37.6366C0.512039 41.4226 0 45.3827 0 49.4533V49.5358C3.00486 52.1822 6.33612 54.4881 9.92788 56.3723C9.92788 56.3443 9.9189 56.3266 9.9189 56.2985C12.6153 57.7139 15.4615 58.8993 18.4185 59.8089L18.4289 59.8178C19.4096 62.762 20.8005 65.519 22.5432 68.0224C28.5799 76.7519 38.7503 82.5032 50.2652 82.5032C68.7495 82.5032 83.7814 67.6921 83.7814 49.499C83.7814 46.7331 83.4355 44.0499 82.7738 41.4875C80.3947 45.4298 77.5306 49.0493 74.2832 52.2928C72.8743 64.1095 62.638 73.3152 50.2652 73.3152C45.1149 73.3152 40.3284 71.7259 36.3997 68.9969C33.7213 67.1496 31.435 64.7789 29.7103 62.0322L29.6549 61.9496C30.9335 62.0514 32.2211 62.0971 33.5176 62.0971C49.7622 62.0971 64.234 54.4704 73.4253 42.6552C73.4343 42.692 73.4432 42.72 73.4537 42.7569C75.7774 39.7979 77.7552 36.5647 79.3512 33.1281V33.1222C77.5426 30.0055 75.2264 27.2072 72.521 24.8394L72.512 24.8306C70.6645 23.2132 68.6403 21.789 66.4559 20.6037H66.4469C61.6514 17.9764 56.1372 16.4874 50.2682 16.4874C34.3785 16.4874 21.0355 27.4313 17.601 42.0669C20.3528 43.5191 23.3292 44.6027 26.4659 45.2647C28.4901 34.138 38.391 25.6754 50.2682 25.6754C54.9155 25.6754 59.2529 26.9713 62.9389 29.2226C64.9632 30.4448 66.7927 31.9693 68.3603 33.7163L68.3693 33.7252C68.239 33.9272 67.6222 34.8648 67.4365 35.1317C67.2494 35.3985 65.9064 37.2267 65.7013 37.4744C64.8898 38.4946 62.7533 40.7916 62.5572 40.9847C61.5675 41.9593 60.533 42.8866 59.4505 43.7683C59.2259 43.9526 59.0028 44.1354 58.7693 44.3005C58.2557 44.6956 57.7332 45.0819 57.2017 45.4578C56.8663 45.6878 56.5295 45.9178 56.1851 46.1464C55.5039 46.596 53.3854 47.8374 53.0216 48.0305C52.517 48.3151 51.9945 48.5731 51.4735 48.8208C51.3986 48.8488 48.6093 50.0799 47.8338 50.3644C47.4415 50.5015 45.3709 51.1915 44.7271 51.3655C41.1623 52.3769 37.4028 52.9091 33.5206 52.9091C31.0383 52.9091 28.6039 52.6879 26.2428 52.2663V52.2383C22.9205 51.65 19.739 50.6666 16.7446 49.3353V49.3722C14.1979 48.2414 11.7904 46.8644 9.55957 45.2647C9.55957 45.247 9.55957 45.2278 9.56855 45.2102C9.84853 42.6006 10.38 40.0736 11.1451 37.6395C16.2954 21.1831 31.8872 9.19241 50.2682 9.19241C56.3887 9.19241 62.2023 10.5252 67.4275 12.9048C69.8156 13.9987 72.0928 15.3123 74.2023 16.8191C74.2113 16.8279 74.2203 16.8279 74.2308 16.8368C77.2731 19.0055 79.9965 21.5782 82.3201 24.4635C82.3381 24.4915 82.3665 24.518 82.386 24.546C84.2994 26.9167 85.9403 29.5174 87.2758 32.2921C90.3061 38.5683 91.73 45.7498 91.0278 53.2747C89.2326 72.5279 73.4537 87.9936 53.8929 89.6566C35.4236 91.2268 19.1985 80.6529 12.5555 65.1504C8.43069 63.5522 4.54098 61.4837 0.947722 59.0216C5.6489 82.7509 27.6352 100.471 53.4423 98.9036C78.8781 97.3585 99.3192 76.8801 100.481 51.8107C101.039 39.7611 97.2007 28.6078 90.4109 19.7515L90.4049 19.7456ZM140.356 36.8832C140.399 34.4609 140.034 32.2169 139.264 30.1558C138.496 28.1006 137.39 26.327 135.939 24.8335C134.482 23.3415 132.768 22.1576 130.792 21.2922C128.814 20.4268 126.676 19.9948 124.391 19.9948C121.8 19.9948 119.412 20.4415 117.236 21.3217C115.061 22.2151 113.186 23.4712 111.626 25.093C110.066 26.7148 108.843 28.6343 107.964 30.8399C107.085 33.047 106.646 35.4988 106.646 38.1806C106.646 41.5553 107.43 44.5556 108.99 47.1725C110.55 49.7968 112.724 51.8667 115.522 53.3809C118.313 54.895 121.535 55.6528 125.18 55.6528C126.806 55.6528 128.461 55.4361 130.13 55.0041C131.799 54.5721 133.395 53.9735 134.912 53.2157C136.427 52.4579 137.782 51.5424 138.969 50.4543L134.942 44.9374C133.361 46.279 131.888 47.2093 130.527 47.7283C129.164 48.2473 127.672 48.5067 126.038 48.5067C123.71 48.5067 121.674 48.0674 119.939 47.1725C118.203 46.2849 116.863 45.0229 115.919 43.3717C115.281 42.2689 114.857 41.0349 114.652 39.6726H140.288L140.356 36.8832ZM115.619 31.8498C116.366 30.3136 117.479 29.1312 118.95 28.31C120.422 27.4873 122.238 27.0774 124.391 27.0774C125.797 27.0774 127.086 27.3664 128.249 27.9502C129.414 28.5341 130.372 29.342 131.12 30.3593C131.867 31.3766 132.305 32.5516 132.437 33.8932V34.2176H114.826C115.008 33.3448 115.272 32.559 115.616 31.8528L115.619 31.8498ZM162.451 55.6528C159.196 55.6528 156.274 54.8744 153.679 53.3145C151.085 51.7562 149.039 49.6346 147.545 46.9484C146.05 44.2636 145.302 41.2324 145.302 37.8548C145.302 34.4771 146.05 31.4473 147.545 28.7611C149.039 26.0764 151.085 23.9548 153.679 22.3965C156.274 20.8381 159.196 20.0582 162.451 20.0582C165.706 20.0582 168.41 20.642 170.96 21.8112C173.51 22.9803 175.489 24.6035 176.896 26.6823L172.411 32.0076C171.752 31.0979 170.915 30.2753 169.904 29.5396C168.892 28.8039 167.816 28.2186 166.673 27.7866C165.53 27.3546 164.387 27.1364 163.243 27.1364C161.309 27.1364 159.583 27.6023 158.066 28.5326C156.548 29.4644 155.35 30.7411 154.471 32.3644C153.591 33.9876 153.152 35.8187 153.152 37.8533C153.152 39.8878 153.603 41.7086 154.504 43.3098C155.406 44.9123 156.626 46.1906 158.165 47.1415C159.704 48.0954 161.418 48.5716 163.311 48.5716C164.453 48.5716 165.564 48.3873 166.64 48.0202C167.718 47.6531 168.74 47.1224 169.708 46.4294C170.675 45.7365 171.577 44.8711 172.412 43.8317L176.898 49.2233C175.402 51.1296 173.346 52.6761 170.731 53.8674C168.114 55.0572 165.354 55.6528 162.451 55.6528ZM198.993 55.6528C195.52 55.6528 192.419 54.8847 189.693 53.347C186.965 51.8107 184.812 49.6995 183.228 47.0147C181.645 44.33 180.853 41.2781 180.853 37.8562C180.853 34.4343 181.645 31.3839 183.228 28.6977C184.81 26.013 186.965 23.9017 189.693 22.3655C192.419 20.8293 195.518 20.0597 198.993 20.0597C202.468 20.0597 205.502 20.8293 208.228 22.3655C210.954 23.9032 213.098 26.0145 214.658 28.6977C216.218 31.3825 217 34.4358 217 37.8562C217 41.2767 216.218 44.33 214.658 47.0147C213.097 49.6995 210.953 51.8107 208.228 53.347C205.502 54.8847 202.423 55.6528 198.993 55.6528ZM198.993 48.5731C200.883 48.5731 202.566 48.0969 204.039 47.143C205.512 46.1906 206.677 44.9138 207.535 43.3112C208.393 41.7101 208.798 39.8908 208.755 37.8548C208.798 35.776 208.393 33.936 207.535 32.3334C206.677 30.7323 205.512 29.4658 204.039 28.5341C202.566 27.6038 200.883 27.1379 198.993 27.1379C197.104 27.1379 195.399 27.6038 193.882 28.5341C192.364 29.4658 191.187 30.7426 190.353 32.3658C189.518 33.9891 189.1 35.8202 189.1 37.8548C189.1 39.8893 189.516 41.7101 190.353 43.3112C191.187 44.9138 192.365 46.1921 193.882 47.143C195.399 48.0969 197.102 48.5731 198.993 48.5731ZM137.818 68.1964C137.818 69.2593 137.679 70.2339 137.4 71.1199C137.122 72.006 136.722 72.7682 136.2 73.4051C135.677 74.0421 135.024 74.5389 134.243 74.8927C133.46 75.2466 132.573 75.425 131.585 75.425C130.919 75.425 130.307 75.3454 129.75 75.1861C129.191 75.0269 128.733 74.85 128.374 74.6539V80.0484H125.108V61.6843C125.773 61.5073 126.592 61.3393 127.564 61.18C128.535 61.0208 129.561 60.9412 130.64 60.9412C131.72 60.9412 132.755 61.1093 133.636 61.4454C134.518 61.7816 135.27 62.2651 135.89 62.8932C136.511 63.5227 136.987 64.2835 137.321 65.1784C137.653 66.0733 137.818 67.0788 137.818 68.1964ZM134.472 68.2494C134.472 66.8134 134.142 65.6974 133.487 64.9012C132.829 64.1036 131.774 63.7056 130.316 63.7056C130.01 63.7056 129.691 63.7188 129.357 63.7454C129.024 63.7719 128.696 63.8294 128.372 63.9179V71.8645C128.66 72.0591 129.043 72.2419 129.519 72.41C129.995 72.578 130.504 72.6621 131.043 72.6621C132.23 72.6621 133.099 72.264 133.647 71.4664C134.196 70.6688 134.472 69.5955 134.472 68.2494ZM145.888 60.8881C146.967 60.8881 147.876 61.0208 148.613 61.2862C149.351 61.5516 149.939 61.9246 150.381 62.4023C150.823 62.8814 151.137 63.4608 151.326 64.1434C151.514 64.826 151.609 65.575 151.609 66.3888V74.8131C151.104 74.9193 150.345 75.0475 149.328 75.1979C148.312 75.3483 147.165 75.4235 145.888 75.4235C145.042 75.4235 144.268 75.3439 143.567 75.1846C142.867 75.0254 142.268 74.7689 141.772 74.4136C141.277 74.0597 140.89 73.5983 140.612 73.0307C140.333 72.4645 140.194 71.7642 140.194 70.9312C140.194 70.0982 140.351 69.4613 140.666 68.9114C140.98 68.3629 141.408 67.9147 141.949 67.5698C142.488 67.2248 143.114 66.9771 143.823 66.8252C144.534 66.6749 145.277 66.5997 146.05 66.5997C146.409 66.5997 146.786 66.6218 147.183 66.666C147.578 66.7102 148.002 66.7854 148.451 66.8916V66.3593C148.451 65.9878 148.406 65.634 148.316 65.2964C148.225 64.9602 148.069 64.6639 147.843 64.4059C147.619 64.1493 147.322 63.9503 146.952 63.8073C146.583 63.6658 146.12 63.595 145.563 63.595C144.807 63.595 144.114 63.6481 143.485 63.7542C142.855 63.8604 142.343 63.9842 141.947 64.1272L141.543 61.5221C141.956 61.3806 142.56 61.239 143.35 61.096C144.142 60.9545 144.987 60.8837 145.886 60.8837L145.888 60.8881ZM146.157 72.8744C147.165 72.8744 147.93 72.8213 148.451 72.7151V69.1547C148.271 69.1016 148.009 69.0485 147.668 68.9954C147.327 68.9424 146.948 68.9158 146.535 68.9158C146.174 68.9158 145.81 68.9424 145.442 68.9954C145.073 69.0485 144.74 69.1458 144.443 69.2874C144.147 69.4304 143.907 69.6294 143.727 69.8859C143.548 70.1439 143.456 70.4668 143.456 70.856C143.456 71.6183 143.699 72.1446 144.186 72.4365C144.671 72.7284 145.329 72.8744 146.157 72.8744ZM161.135 63.8913C161.117 64.6712 161.09 65.4821 161.054 66.3225C161.018 67.1643 160.933 67.9929 160.798 68.8082C160.664 69.6235 160.453 70.4034 160.164 71.1465C159.876 71.8895 159.476 72.5589 158.963 73.153C158.451 73.7472 157.812 74.2426 157.046 74.6406C156.281 75.0387 155.35 75.2923 154.253 75.3984L153.795 72.7151C154.712 72.5382 155.423 72.2507 155.927 71.8512C156.431 71.4531 156.817 70.943 157.087 70.3223C157.302 69.8623 157.469 69.339 157.587 68.7551C157.704 68.1698 157.794 67.555 157.856 66.9078C157.919 66.2606 157.96 65.6015 157.978 64.9278C157.996 64.254 158.005 63.5994 158.005 62.961V61.2346H167.989V75.133H164.724V63.8913H161.135ZM175.411 66.3623C175.68 66.2915 176.077 66.2296 176.598 66.1765C177.119 66.1235 177.642 66.0969 178.164 66.0969C178.974 66.0969 179.733 66.1854 180.445 66.3623C181.154 66.5392 181.771 66.8178 182.294 67.1997C182.815 67.5816 183.229 68.0681 183.535 68.6608C183.84 69.2549 183.993 69.9582 183.993 70.7735C183.993 71.5888 183.849 72.3156 183.562 72.8994C183.274 73.4847 182.86 73.9624 182.321 74.3354C181.78 74.7084 181.138 74.9827 180.391 75.1596C179.644 75.3365 178.813 75.425 177.895 75.425C176.833 75.425 175.844 75.3719 174.926 75.2657C174.008 75.1596 173.081 74.9989 172.147 74.7866V61.2331H175.413L175.411 66.3623ZM177.812 72.8994C178.73 72.8994 179.446 72.727 179.958 72.382C180.47 72.037 180.728 71.4826 180.728 70.7204C180.728 70.3312 180.642 70.0024 180.472 69.737C180.301 69.4716 180.076 69.2549 179.796 69.0854C179.518 68.9173 179.188 68.7979 178.811 68.7271C178.432 68.6563 178.037 68.621 177.624 68.621C177.247 68.621 176.85 68.6342 176.437 68.6608C176.022 68.6873 175.68 68.7359 175.411 68.8067V72.7668C175.645 72.8021 175.99 72.8331 176.45 72.8596C176.908 72.8862 177.363 72.8994 177.812 72.8994ZM198.809 75.133H195.544V69.3124H190.227V75.133H186.962V61.2346H190.227V66.6557H195.544V61.2346H198.809V75.133ZM209.2 69.9773H208.551C208.336 69.9773 208.129 69.9685 207.93 69.9508C207.355 70.8015 206.824 71.6743 206.339 72.5677C205.852 73.4626 205.403 74.3177 204.99 75.1316H201.643C202.128 74.0332 202.669 72.9791 203.263 71.9691C203.856 70.9592 204.415 70.0997 204.936 69.392C204.054 69.019 203.411 68.5192 203.007 67.8912C202.603 67.2631 202.399 66.5215 202.399 65.6723C202.399 64.8924 202.548 64.2068 202.844 63.6127C203.14 63.02 203.56 62.5232 204.099 62.1251C204.639 61.727 205.286 61.4248 206.042 61.2213C206.798 61.0179 207.634 60.9161 208.551 60.9161C209.613 60.9161 210.643 60.9781 211.642 61.1019C212.64 61.2257 213.453 61.3688 214.083 61.528V75.1345H210.818V69.9788L209.2 69.9773ZM210.82 63.5729C210.622 63.5375 210.315 63.5065 209.902 63.48C209.487 63.4535 209.065 63.4402 208.634 63.4402C206.636 63.4402 205.638 64.167 205.638 65.6192C205.638 66.0085 205.714 66.3328 205.867 66.5893C206.02 66.8459 206.231 67.0538 206.5 67.213C206.77 67.3722 207.084 67.4843 207.445 67.5447C207.804 67.6066 208.191 67.6376 208.605 67.6376H210.818L210.82 63.5729ZM120.951 65.1799C120.617 64.285 120.141 63.5227 119.519 62.8947C118.898 62.2666 118.148 61.783 117.266 61.4469C116.384 61.1107 115.386 60.9427 114.27 60.9427C113.155 60.9427 112.165 61.0223 111.193 61.1815C110.222 61.3407 109.403 61.5103 108.738 61.6857V75.133H112.003V63.9179C112.327 63.8294 112.655 63.7719 112.989 63.7454C113.322 63.7188 113.641 63.7056 113.947 63.7056C115.405 63.7056 116.461 64.1036 117.118 64.9012C117.146 64.9366 117.176 64.972 117.205 65.0089C117.756 65.6988 118.054 66.5569 118.054 67.4356V75.1478H121.319V67.4371C121.319 66.6748 121.219 65.9097 120.955 65.1946C120.954 65.1902 120.952 65.1843 120.951 65.1799Z" fill="white"/>
</svg>
